<?xml version="1.0" encoding="UTF-8"?>
<svg version="1.1" xmlns="http://www.w3.org/2000/svg" width="500" height="500">
<path d="M0 0 C1.76676086 -0.00845947 1.76676086 -0.00845947 3.56921387 -0.01708984 C4.86798462 -0.01304138 6.16675537 -0.00899292 7.50488281 -0.00482178 C8.88122747 -0.00753069 10.25757068 -0.01109106 11.63391113 -0.01544189 C15.37764523 -0.02458008 19.12126941 -0.0210158 22.86500549 -0.01468372 C26.77719424 -0.0096311 30.68937339 -0.01431312 34.6015625 -0.01745605 C41.17221776 -0.02109786 47.74282811 -0.016291 54.31347656 -0.0067749 C61.9172615 0.00411007 69.52093919 0.00058465 77.12472153 -0.01042771 C83.64534297 -0.0194945 90.16593206 -0.02078886 96.68655777 -0.01555037 C100.58447274 -0.01242731 104.48233726 -0.0120305 108.38024902 -0.01862335 C112.0442763 -0.02438738 115.70816488 -0.02041737 119.37217712 -0.00883484 C121.36371671 -0.0049151 123.35526799 -0.01088194 125.34680176 -0.01708984 C126.52464233 -0.0114502 127.70248291 -0.00581055 128.91601562 0 C129.94398254 0.00075405 130.97194946 0.0015081 132.03106689 0.002285 C134.45800781 0.25396729 134.45800781 0.25396729 136.45800781 2.25396729 C136.72363281 5.00396729 136.72363281 5.00396729 136.70800781 8.25396729 C136.71574219 9.86271729 136.71574219 9.86271729 136.72363281 11.50396729 C136.45800781 14.25396729 136.45800781 14.25396729 134.45800781 16.25396729 C131.33300781 16.37896729 131.33300781 16.37896729 128.45800781 16.25396729 C128.45800781 18.56396729 128.45800781 20.87396729 128.45800781 23.25396729 C141.32800781 23.25396729 154.19800781 23.25396729 167.45800781 23.25396729 C167.45800781 23.91396729 167.45800781 24.57396729 167.45800781 25.25396729 C168.11800781 25.25396729 168.77800781 25.25396729 169.45800781 25.25396729 C169.45800781 25.91396729 169.45800781 26.57396729 169.45800781 27.25396729 C170.11800781 27.25396729 170.77800781 27.25396729 171.45800781 27.25396729 C172.23711653 50.78904365 170.42144443 70.74294619 155.71972656 89.99615479 C154.45800781 91.25396729 154.45800781 91.25396729 152.45800781 91.25396729 C152.45800781 91.91396729 152.45800781 92.57396729 152.45800781 93.25396729 C143.08645031 101.05079586 132.77236871 106.67860042 120.45800781 106.25396729 C120.44382812 107.21818604 120.42964844 108.18240479 120.41503906 109.17584229 C120.36734375 110.43912354 120.31964844 111.70240479 120.27050781 113.00396729 C120.21830078 114.88342041 120.21830078 114.88342041 120.16503906 116.80084229 C119.45800781 120.25396729 119.45800781 120.25396729 117.09472656 122.70709229 C114.45800781 124.25396729 114.45800781 124.25396729 111.45800781 124.25396729 C111.48121094 124.88045166 111.50441406 125.50693604 111.52832031 126.15240479 C111.54636719 126.96967041 111.56441406 127.78693604 111.58300781 128.62896729 C111.60621094 129.44107666 111.62941406 130.25318604 111.65332031 131.08990479 C111.45800781 133.25396729 111.45800781 133.25396729 109.45800781 135.25396729 C106.60700598 135.45267782 103.85312356 135.52664752 101.00097656 135.51275635 C100.12607574 135.51626099 99.25117493 135.51976562 98.34976196 135.52337646 C95.44826398 135.53220265 92.54700842 135.52634151 89.64550781 135.51959229 C87.63533481 135.52093868 85.62516212 135.522879 83.61499023 135.52539062 C79.39824326 135.52834309 75.18158091 135.5240403 70.96484375 135.51470947 C65.55058558 135.50331489 60.13652567 135.50987371 54.72227478 135.5218544 C50.57025652 135.52906969 46.41828553 135.5267866 42.26626587 135.52159882 C40.2695005 135.5202614 38.27273088 135.52191323 36.27597046 135.52655792 C33.48887711 135.53161771 30.70210815 135.52392066 27.91503906 135.51275635 C27.08380524 135.51680481 26.25257141 135.52085327 25.39614868 135.52502441 C19.6865358 135.48249527 19.6865358 135.48249527 17.45800781 133.25396729 C17.26269531 131.08990479 17.26269531 131.08990479 17.33300781 128.62896729 C17.35105469 127.81170166 17.36910156 126.99443604 17.38769531 126.15240479 C17.41089844 125.52592041 17.43410156 124.89943604 17.45800781 124.25396729 C16.50925781 123.96521729 15.56050781 123.67646729 14.58300781 123.37896729 C11.45800781 122.25396729 11.45800781 122.25396729 9.45800781 120.25396729 C9.07237244 118.45262146 9.07237244 118.45262146 8.87963867 116.25079346 C8.80293442 115.4262114 8.72623016 114.60162933 8.64720154 113.75205994 C8.57316605 112.85936905 8.49913055 111.96667816 8.42285156 111.04693604 C8.33926895 110.12939041 8.25568634 109.21184479 8.16957092 108.26649475 C7.90309682 105.32550446 7.64878988 102.38362055 7.39550781 99.44146729 C7.13651139 96.51026268 6.87497327 93.57931131 6.61073303 90.64857483 C6.44690493 88.82360226 6.28647959 86.99832022 6.12986755 85.17271423 C5.77331269 81.12958659 5.3150451 77.22700886 4.45800781 73.25396729 C4.2092195 69.88150345 4.02076252 66.51371 3.85253906 63.13677979 C3.64866143 59.41074027 3.20652926 55.90227263 2.45800781 52.25396729 C2.28327985 50.02687916 2.1407542 47.79716049 2.02050781 45.56646729 C1.60304082 38.73212867 0.92134872 31.95670469 0.1184082 25.15753174 C-0.23202311 22.16941685 -0.54199219 19.26576924 -0.54199219 16.25396729 C-2.52199219 16.25396729 -4.50199219 16.25396729 -6.54199219 16.25396729 C-7.90470352 13.52854462 -7.7112282 11.29309455 -7.72949219 8.25396729 C-7.74367187 7.18146729 -7.75785156 6.10896729 -7.77246094 5.00396729 C-7.33228427 -0.24831028 -4.55016902 0.00333771 0 0 Z M126.45800781 38.25396729 C126.24632293 40.50017905 126.08885072 42.75160011 125.95800781 45.00396729 C125.7121491 49.20112673 125.29255403 53.14215197 124.45800781 57.25396729 C124.04414011 60.39378331 123.71508025 63.54080319 123.39550781 66.69146729 C123.3060791 67.57221924 123.21665039 68.45297119 123.12451172 69.3604126 C122.42562178 76.68477911 122.23870079 83.8949983 122.45800781 91.25396729 C131.15370953 89.42329324 138.31100576 85.79333117 144.45800781 79.25396729 C144.45800781 78.59396729 144.45800781 77.93396729 144.45800781 77.25396729 C145.11800781 77.25396729 145.77800781 77.25396729 146.45800781 77.25396729 C153.78776912 64.22104923 156.21379599 52.17603357 157.45800781 37.25396729 C153.20386158 37.22931107 148.94975283 37.2111283 144.69555664 37.19903564 C143.24730709 37.19399628 141.79906264 37.18716475 140.35083008 37.17852783 C138.27326193 37.16644482 136.19576084 37.16073517 134.11816406 37.15631104 C132.86656494 37.15107422 131.61496582 37.1458374 130.32543945 37.14044189 C127.56068487 36.92509694 127.56068487 36.92509694 126.45800781 38.25396729 Z " fill="#92BE31" transform="translate(185.5419921875,207.74603271484375)"/>
<path d="M0 0 C2.67411514 2.44583702 4.86305045 5.07860062 7 8 C7.43699219 8.57234375 7.87398438 9.1446875 8.32421875 9.734375 C12.48044433 16.32600294 11.84044597 24.54754989 11 32 C8.63681184 40.29838424 2.96878258 46.41761907 -3.91796875 51.3828125 C-11.46397245 55.55719752 -22.45267123 55.4671984 -30.62890625 53.3046875 C-32.63119126 52.3721164 -34.25001018 51.34291785 -36 50 C-36.91458984 49.38125 -36.91458984 49.38125 -37.84765625 48.75 C-43.8421467 44.2700411 -46.67668274 37.96995179 -49 31 C-49.89657882 20.43317817 -49.14842007 12.47301359 -42.390625 3.9765625 C-31.08584439 -8.31349716 -13.71764247 -9.12709282 0 0 Z " fill="#EBEEF8" transform="translate(269,254)"/>
<path d="M0 0 C1.76676086 -0.00845947 1.76676086 -0.00845947 3.56921387 -0.01708984 C4.86798462 -0.01304138 6.16675537 -0.00899292 7.50488281 -0.00482178 C8.88122747 -0.00753069 10.25757068 -0.01109106 11.63391113 -0.01544189 C15.37764523 -0.02458008 19.12126941 -0.0210158 22.86500549 -0.01468372 C26.77719424 -0.0096311 30.68937339 -0.01431312 34.6015625 -0.01745605 C41.17221776 -0.02109786 47.74282811 -0.016291 54.31347656 -0.0067749 C61.9172615 0.00411007 69.52093919 0.00058465 77.12472153 -0.01042771 C83.64534297 -0.0194945 90.16593206 -0.02078886 96.68655777 -0.01555037 C100.58447274 -0.01242731 104.48233726 -0.0120305 108.38024902 -0.01862335 C112.0442763 -0.02438738 115.70816488 -0.02041737 119.37217712 -0.00883484 C121.36371671 -0.0049151 123.35526799 -0.01088194 125.34680176 -0.01708984 C126.52464233 -0.0114502 127.70248291 -0.00581055 128.91601562 0 C129.94398254 0.00075405 130.97194946 0.0015081 132.03106689 0.002285 C134.45800781 0.25396729 134.45800781 0.25396729 136.45800781 2.25396729 C136.72363281 5.00396729 136.72363281 5.00396729 136.70800781 8.25396729 C136.71574219 9.86271729 136.71574219 9.86271729 136.72363281 11.50396729 C136.45800781 14.25396729 136.45800781 14.25396729 134.45800781 16.25396729 C132.0098629 16.50006294 132.0098629 16.50006294 128.86459351 16.49447632 C127.67544846 16.49722565 126.48630341 16.49997498 125.26112366 16.50280762 C123.94986008 16.49561707 122.6385965 16.48842651 121.28759766 16.48101807 C119.89815784 16.48045415 118.50871742 16.48077012 117.11927795 16.48190308 C113.34053939 16.48247837 109.56192706 16.4706956 105.78321791 16.45675516 C101.8367371 16.44427715 97.8902536 16.44307962 93.9437561 16.44070435 C86.46748401 16.43448094 78.99127022 16.41805853 71.51502383 16.39800537 C63.00486944 16.37567309 54.49471231 16.36465967 45.98453593 16.3546145 C28.47565947 16.33369301 10.9668398 16.29850037 -6.54199219 16.25396729 C-7.90470352 13.52854462 -7.7112282 11.29309455 -7.72949219 8.25396729 C-7.74367187 7.18146729 -7.75785156 6.10896729 -7.77246094 5.00396729 C-7.33228427 -0.24831028 -4.55016902 0.00333771 0 0 Z " fill="#353248" transform="translate(185.5419921875,207.74603271484375)"/>
<path d="M0 0 C8.10077713 5.73168193 13.33127511 13.44111265 16 23 C16.96965034 31.78322809 15.6806144 39.02319806 12 47 C11.72285156 47.65742188 11.44570313 48.31484375 11.16015625 48.9921875 C7.1661352 57.27471964 -1.66236488 62.03479898 -10 65 C-18.82165717 67.70012987 -27.53280028 66.88520764 -35.625 62.6875 C-39.26294993 60.70202847 -42.86427599 58.73037432 -46 56 C-46 55.34 -46 54.68 -46 54 C-46.66 54 -47.32 54 -48 54 C-54.28471158 46.24885572 -56.71935786 37.0885701 -56.390625 27.21484375 C-55.10492373 16.6335223 -50.22215604 8.39427029 -42.14453125 1.60546875 C-29.22891965 -8.06359567 -13.56769405 -8.42041713 0 0 Z M-45 12 C-50.78573948 19.58891838 -51.07662949 27.73899261 -50 37 C-47.81643036 45.83881115 -43.20375325 51.71432553 -35.84375 56.921875 C-28.57702312 61.17106275 -20.18003742 60.94415372 -12 60 C-3.7165017 57.7225676 2.49897186 51.944955 7.3828125 45.046875 C11.52651353 37.45491927 11.42885731 27.22769429 9.1875 19.02734375 C5.8128767 11.44615876 -0.20292882 6.30802366 -7.1875 2.0625 C-21.86757954 -3.48330783 -34.80653804 0.61670885 -45 12 Z " fill="#35393C" transform="translate(270,248)"/>
<path d="M0 0 C30.36 0 60.72 0 92 0 C92 3.63 92 7.26 92 11 C90.16881916 12.83118084 87.61232955 12.12645259 85.1751709 12.13552856 C84.33877075 12.13350433 83.50237061 12.1314801 82.640625 12.12939453 C81.76426392 12.13114685 80.88790283 12.13289917 79.98498535 12.13470459 C77.07330373 12.13912432 74.1616823 12.13618469 71.25 12.1328125 C69.23600248 12.1334855 67.22200505 12.1344555 65.20800781 12.13571167 C60.98111195 12.13718881 56.75423717 12.13503358 52.52734375 12.13037109 C47.09619468 12.1246738 41.66509501 12.12795272 36.23394775 12.13394356 C32.07340113 12.13754874 27.91286631 12.13641078 23.75231934 12.13381577 C21.74914545 12.13314638 19.74597051 12.13397533 17.74279785 12.13629532 C14.94829448 12.13882115 12.15387229 12.13498224 9.359375 12.12939453 C8.52297485 12.13141876 7.68657471 12.13344299 6.8248291 12.13552856 C1.11426242 12.11426242 1.11426242 12.11426242 0 11 C0 7.37 0 3.74 0 0 Z " fill="#353341" transform="translate(204,331)"/>
<path d="M0 0 C42.24 0 84.48 0 128 0 C128 1.98 128 3.96 128 6 C127 7 127 7 124.90916348 7.12304783 C123.51679517 7.12166514 123.51679517 7.12166514 122.09629822 7.12025452 C120.50396111 7.12231651 120.50396111 7.12231651 118.87945557 7.12442017 C117.70485779 7.12082489 116.53026001 7.11722961 115.32006836 7.11352539 C114.09097244 7.11367142 112.86187653 7.11381744 111.59553528 7.1139679 C108.21551328 7.11338892 104.83555171 7.10835964 101.45554042 7.10139394 C97.92678806 7.09515988 94.39803497 7.09455656 90.86927795 7.09336853 C84.18276881 7.09025537 77.49627594 7.08204218 70.80977398 7.07201904 C63.19925697 7.06085744 55.5887392 7.05534733 47.97821605 7.05032361 C32.31880126 7.03985956 16.65940273 7.02226041 1 7 C0.67 4.69 0.34 2.38 0 0 Z " fill="#6F9639" transform="translate(186,224)"/>
<path d="M0 0 C1.5546875 1.70703125 1.5546875 1.70703125 2.875 3.8125 C3.32617188 4.49957031 3.77734375 5.18664062 4.2421875 5.89453125 C5 8 5 8 4.1328125 10.26171875 C3.75898438 10.83535156 3.38515625 11.40898437 3 12 C0.525 11.505 0.525 11.505 -2 11 C-2.12375 11.70898438 -2.2475 12.41796875 -2.375 13.1484375 C-4.65883025 24.93871114 -8.35918175 36.27691947 -11.96826172 47.71533203 C-13.67085139 53.13573937 -15.33512191 58.56791194 -17 64 C-18.98 64 -20.96 64 -23 64 C-24.58990272 60.00342583 -23.31665746 57.32370476 -21.89453125 53.40234375 C-19.85502713 47.60627131 -18.00422075 41.78946512 -16.32421875 35.87890625 C-16.10661896 35.1147641 -15.88901917 34.35062195 -15.66482544 33.56332397 C-15.00308446 31.2304518 -14.34519127 28.89651671 -13.6875 26.5625 C-13.22883007 24.94457228 -12.76984723 23.32673324 -12.31054688 21.70898438 C-11.20343833 17.80699758 -10.1005115 13.9038523 -9 10 C-10.32 9.34 -11.64 8.68 -13 8 C-13 5.75 -13 5.75 -12 3 C-8.26825466 0.2502929 -4.52359951 -1.98080223 0 0 Z " fill="#6C6777" transform="translate(268,138)"/>
<path d="M0 0 C3.03432378 2.15298492 4.58553328 4.88146828 5.8828125 8.3359375 C5.6328125 11.2734375 5.6328125 11.2734375 4.8828125 13.3359375 C2.4078125 12.8409375 2.4078125 12.8409375 -0.1171875 12.3359375 C-0.28009277 13.02598877 -0.44299805 13.71604004 -0.61083984 14.42700195 C-2.50295243 22.23438142 -4.73595267 29.91169506 -7.13378906 37.57641602 C-7.75296112 39.55791567 -8.36502195 41.54152397 -8.9765625 43.52539062 C-11.98975084 53.20850084 -11.98975084 53.20850084 -13.1171875 54.3359375 C-15.11677114 54.37674533 -17.11764004 54.37848106 -19.1171875 54.3359375 C-19.49653293 50.28958621 -18.41476312 47.42996112 -16.97045898 43.69482422 C-15.39586653 39.34183073 -14.25066473 34.8672936 -13.0546875 30.3984375 C-12.79880859 29.46064453 -12.54292969 28.52285156 -12.27929688 27.55664062 C-10.73516866 21.84455709 -9.35739382 16.12158899 -8.1171875 10.3359375 C-9.1071875 10.0059375 -10.0971875 9.6759375 -11.1171875 9.3359375 C-11.1171875 7.1484375 -11.1171875 7.1484375 -10.1171875 4.3359375 C-3.86744226 -1.21303539 -3.86744226 -1.21303539 0 0 Z " fill="#5D586A" transform="translate(289.1171875,147.6640625)"/>
<path d="M0 0 C0.66 0 1.32 0 2 0 C2.84114486 8.93295842 -4.52149549 18.91034204 -9.73828125 25.7421875 C-11 27 -11 27 -13 27 C-13 27.66 -13 28.32 -13 29 C-22.3715575 36.79682858 -32.6856391 42.42463313 -45 42 C-45.01417969 42.96421875 -45.02835937 43.9284375 -45.04296875 44.921875 C-45.09066406 46.18515625 -45.13835937 47.4484375 -45.1875 48.75 C-45.22230469 50.00296875 -45.25710938 51.2559375 -45.29296875 52.546875 C-46 56 -46 56 -48.36328125 58.453125 C-51 60 -51 60 -54 60 C-54 62.97 -54 65.94 -54 69 C-54.33 69 -54.66 69 -55 69 C-55 65.7 -55 62.4 -55 59 C-85.36 59 -115.72 59 -147 59 C-147 62.3 -147 65.6 -147 69 C-147.33 69 -147.66 69 -148 69 C-148 66.03 -148 63.06 -148 60 C-148.94875 59.71125 -149.8975 59.4225 -150.875 59.125 C-154 58 -154 58 -156 56 C-156.3923645 54.19865417 -156.3923645 54.19865417 -156.59423828 51.99682617 C-156.67417023 51.17224411 -156.75410217 50.34766205 -156.8364563 49.49809265 C-156.95221512 48.15905632 -156.95221512 48.15905632 -157.0703125 46.79296875 C-157.15626678 45.87542313 -157.24222107 44.9578775 -157.33078003 44.01252747 C-157.5113047 42.06854825 -157.68754799 40.12416745 -157.85986328 38.17944336 C-158.12307241 35.20925191 -158.39819611 32.24036341 -158.67578125 29.27148438 C-158.84965748 27.38287674 -159.02285664 25.49420662 -159.1953125 23.60546875 C-159.27653351 22.71885056 -159.35775452 21.83223236 -159.44143677 20.91874695 C-159.79327404 16.93320691 -160.10605823 13.00601487 -160 9 C-159.34 9 -158.68 9 -158 9 C-157.91435791 9.93384521 -157.82871582 10.86769043 -157.74047852 11.82983398 C-157.42161822 15.28347208 -157.09877681 18.73668909 -156.77319336 22.18969727 C-156.63291299 23.68629216 -156.49423678 25.1830383 -156.35717773 26.67993164 C-156.16027308 28.82740078 -155.95766811 30.97426581 -155.75390625 33.12109375 C-155.57323608 35.06133423 -155.57323608 35.06133423 -155.38891602 37.04077148 C-155.32103439 39.88194527 -155.32103439 39.88194527 -154 41 C-153.76346477 43.52596259 -153.57826308 46.03107207 -153.4375 48.5625 C-153.39431641 49.27341797 -153.35113281 49.98433594 -153.30664062 50.71679688 C-153.20028223 52.47761912 -153.09961154 54.2387832 -153 56 C-148.48676834 57.12993773 -144.05810712 57.14113187 -139.43701172 57.12939453 C-138.58588303 57.13114685 -137.73475433 57.13289917 -136.85783386 57.13470459 C-134.04843089 57.13909949 -131.2390911 57.13619183 -128.4296875 57.1328125 C-126.46778349 57.13348659 -124.50587956 57.1344575 -122.54397583 57.13571167 C-118.43002528 57.13718576 -114.31609646 57.13504472 -110.20214844 57.13037109 C-104.95370168 57.12469655 -99.70530633 57.12794017 -94.4568615 57.13394356 C-90.40228903 57.13757625 -86.34772852 57.1363978 -82.29315567 57.13381577 C-80.35965087 57.1331528 -78.42614495 57.13395267 -76.49264145 57.13629532 C-62.21797988 57.17316657 -62.21797988 57.17316657 -48 56 C-48.02320313 55.08476562 -48.04640625 54.16953125 -48.0703125 53.2265625 C-48.08835937 52.03804688 -48.10640625 50.84953125 -48.125 49.625 C-48.14820313 48.44164062 -48.17140625 47.25828125 -48.1953125 46.0390625 C-48 43 -48 43 -46 41 C-43.31160615 40.73008094 -40.70858064 40.91262643 -38 41 C-38 40.34 -38 39.68 -38 39 C-36.75336669 38.49166409 -35.50250613 37.99368855 -34.25 37.5 C-33.55390625 37.2215625 -32.8578125 36.943125 -32.140625 36.65625 C-30 36 -30 36 -26 36 C-26 35.34 -26 34.68 -26 34 C-22.53846154 31 -22.53846154 31 -20 31 C-19.67 30.01 -19.34 29.02 -19 28 C-17.68 28 -16.36 28 -15 28 C-14.67 26.68 -14.34 25.36 -14 24 C-13.01 24 -12.02 24 -11 24 C-11.33 23.01 -11.66 22.02 -12 21 C-11.01 20.505 -11.01 20.505 -10 20 C-9.34 20.33 -8.68 20.66 -8 21 C-8.061875 20.071875 -8.12375 19.14375 -8.1875 18.1875 C-8 15 -8 15 -6.5625 13.3125 C-6.046875 12.879375 -5.53125 12.44625 -5 12 C-4.67 11.01 -4.34 10.02 -4 9 C-3.34 9 -2.68 9 -2 9 C-1.855625 7.700625 -1.71125 6.40125 -1.5625 5.0625 C-1.125 1.125 -1.125 1.125 0 0 Z " fill="#A9C761" transform="translate(351,272)"/>
<path d="M0 0 C1.65 0 3.3 0 5 0 C5.84114171 1.43294498 6.67265687 2.87154405 7.5 4.3125 C7.9640625 5.11300781 8.428125 5.91351563 8.90625 6.73828125 C10 9 10 9 10 12 C8.02 12.33 6.04 12.66 4 13 C1.69 21.25 -0.62 29.5 -3 38 C-5.31 38 -7.62 38 -10 38 C-9.40317702 31.53315857 -7.87545517 25.68706803 -5.9375 19.5 C-5.65583984 18.5821875 -5.37417969 17.664375 -5.08398438 16.71875 C-4.3951987 14.47727797 -3.70044695 12.23784969 -3 10 C-4.32 9.67 -5.64 9.34 -7 9 C-6.6875 6.625 -6.6875 6.625 -6 4 C-3 2 -3 2 0 2 C0 1.34 0 0.68 0 0 Z " fill="#5B5466" transform="translate(227,164)"/>
<path d="M0 0 C1.65 0 3.3 0 5 0 C5 6.93 5 13.86 5 21 C9.95 21 14.9 21 20 21 C20.33 22.32 20.66 23.64 21 25 C19.41062444 26.58937556 17.76100154 26.12981143 15.5625 26.1328125 C14.22058594 26.13474609 14.22058594 26.13474609 12.8515625 26.13671875 C11.91054688 26.13285156 10.96953125 26.12898438 10 26.125 C8.58847656 26.13080078 8.58847656 26.13080078 7.1484375 26.13671875 C6.25382813 26.13542969 5.35921875 26.13414062 4.4375 26.1328125 C3.61121094 26.13168457 2.78492188 26.13055664 1.93359375 26.12939453 C0 26 0 26 -1 25 C-1.09946453 23.23140807 -1.13080217 21.45888549 -1.1328125 19.6875 C-1.13410156 18.61242187 -1.13539063 17.53734375 -1.13671875 16.4296875 C-1.13091797 14.73199219 -1.13091797 14.73199219 -1.125 13 C-1.12886719 11.86820312 -1.13273438 10.73640625 -1.13671875 9.5703125 C-1.13542969 8.49523437 -1.13414062 7.42015625 -1.1328125 6.3125 C-1.13168457 5.31863281 -1.13055664 4.32476562 -1.12939453 3.30078125 C-1 1 -1 1 0 0 Z " fill="#464457" transform="translate(248,255)"/>
<path d="M0 0 C0.97591583 3.38317487 0.85856655 5.5657338 0 9 C0.66 9 1.32 9 2 9 C2 9.66 2 10.32 2 11 C2.66 11 3.32 11 4 11 C2.87026829 17.47028159 1.29312626 23.70680454 -0.5625 30 C-0.89544067 31.13103149 -0.89544067 31.13103149 -1.23510742 32.28491211 C-2.86159439 37.72318877 -2.86159439 37.72318877 -4 40 C-5.98 40 -7.96 40 -10 40 C-11.55980938 36.03750288 -10.35510709 33.45116532 -8.9375 29.5625 C-6.60052201 22.96194576 -4.58876221 16.30115809 -2.6875 9.5625 C-2.42122803 8.62027588 -2.15495605 7.67805176 -1.88061523 6.70727539 C-1.25104218 4.47226006 -0.62401681 2.23657189 0 0 Z " fill="#686473" transform="translate(255,162)"/>
<path d="M0 0 C0.66 0 1.32 0 2 0 C2.08564209 0.93384521 2.17128418 1.86769043 2.25952148 2.82983398 C2.57838178 6.28347208 2.90122319 9.73668909 3.22680664 13.18969727 C3.36708701 14.68629216 3.50576322 16.1830383 3.64282227 17.67993164 C3.83972692 19.82740078 4.04233189 21.97426581 4.24609375 24.12109375 C4.42676392 26.06133423 4.42676392 26.06133423 4.61108398 28.04077148 C4.67896561 30.88194527 4.67896561 30.88194527 6 32 C6.23653523 34.52596259 6.42173692 37.03107207 6.5625 39.5625 C6.60568359 40.27341797 6.64886719 40.98433594 6.69335938 41.71679688 C6.79971777 43.47761912 6.90038846 45.2387832 7 47 C11.4478473 48.09610915 15.81687807 48.1715862 20.37036133 48.20532227 C21.20014496 48.21522186 22.02992859 48.22512146 22.88485718 48.23532104 C25.61721989 48.26681279 28.34959996 48.29164457 31.08203125 48.31640625 C32.98061058 48.33698643 34.87918543 48.35798318 36.77775574 48.37937927 C41.76716482 48.43449007 46.7566145 48.48394771 51.74609375 48.53222656 C56.84053141 48.58252197 61.93491034 48.63816602 67.02929688 48.69335938 C77.01948104 48.80080646 87.00971627 48.90228116 97 49 C97 49.33 97 49.66 97 50 C69.28 50 41.56 50 13 50 C13 53.3 13 56.6 13 60 C12.67 60 12.34 60 12 60 C12 57.03 12 54.06 12 51 C11.05125 50.71125 10.1025 50.4225 9.125 50.125 C6 49 6 49 4 47 C3.6076355 45.19865417 3.6076355 45.19865417 3.40576172 42.99682617 C3.32582977 42.17224411 3.24589783 41.34766205 3.1635437 40.49809265 C3.04778488 39.15905632 3.04778488 39.15905632 2.9296875 37.79296875 C2.84373322 36.87542313 2.75777893 35.9578775 2.66921997 35.01252747 C2.4886953 33.06854825 2.31245201 31.12416745 2.14013672 29.17944336 C1.87692759 26.20925191 1.60180389 23.24036341 1.32421875 20.27148438 C1.15034252 18.38287674 0.97714336 16.49420662 0.8046875 14.60546875 C0.72346649 13.71885056 0.64224548 12.83223236 0.55856323 11.91874695 C0.20672596 7.93320691 -0.10605823 4.00601487 0 0 Z " fill="#90A85C" transform="translate(191,281)"/>
<path d="M0 0 C0.33 0 0.66 0 1 0 C1.05389087 1.95803507 1.09274217 3.91648909 1.125 5.875 C1.14820313 6.96554688 1.17140625 8.05609375 1.1953125 9.1796875 C1 12 1 12 -1 14 C-3.4012928 14.24609566 -3.4012928 14.24609566 -6.47952271 14.24050903 C-8.22537659 14.24463303 -8.22537659 14.24463303 -10.00650024 14.24884033 C-11.28971161 14.24164978 -12.57292297 14.23445923 -13.89501953 14.22705078 C-15.25490307 14.22648686 -16.61478722 14.22680285 -17.97467041 14.22793579 C-21.67283416 14.22851106 -25.37086893 14.21672877 -29.06900263 14.20278788 C-32.93140165 14.19030937 -36.79380342 14.1891123 -40.65621948 14.18673706 C-47.97312033 14.1805138 -55.28996161 14.16409158 -62.6068362 14.14403808 C-70.93561538 14.12170535 -79.26439736 14.11069227 -87.59319901 14.10064721 C-104.72883383 14.07972605 -121.86441062 14.04453369 -139 14 C-139 13.67 -139 13.34 -139 13 C-95.44 13 -51.88 13 -7 13 C-6.67 12.01 -6.34 11.02 -6 10 C-5.34 10 -4.68 10 -4 10 C-4 9.34 -4 8.68 -4 8 C-3.01 8 -2.02 8 -1 8 C-0.67 5.36 -0.34 2.72 0 0 Z " fill="#333E31" transform="translate(321,210)"/>
<path d="M0 0 C0.62648437 0.34933594 1.25296875 0.69867188 1.8984375 1.05859375 C2.71570313 1.51363281 3.53296875 1.96867187 4.375 2.4375 C5.18710938 2.88996094 5.99921875 3.34242188 6.8359375 3.80859375 C11.04174492 6.12406534 14.38766271 6.14917009 19.125 6.125 C19.85976562 6.12886719 20.59453125 6.13273437 21.3515625 6.13671875 C25.11618097 6.1300909 28.70584449 5.93762708 32.4296875 5.3671875 C34.19699219 5.18542969 34.19699219 5.18542969 36 5 C36.66 5.66 37.32 6.32 38 7 C36.35 7 34.7 7 33 7 C32.67 7.99 32.34 8.98 32 10 C29.11734851 10.96088383 27.32337729 11.11670941 24.33203125 11.09765625 C23.43935547 11.09443359 22.54667969 11.09121094 21.62695312 11.08789062 C20.23379883 11.07532227 20.23379883 11.07532227 18.8125 11.0625 C17.87212891 11.05798828 16.93175781 11.05347656 15.96289062 11.04882812 C13.64186288 11.03704626 11.32096356 11.02059558 9 11 C9 10.34 9 9.68 9 9 C7.88625 8.731875 6.7725 8.46375 5.625 8.1875 C2 7 2 7 0 4 C0 2.68 0 1.36 0 0 Z " fill="#302E41" transform="translate(230,301)"/>
<path d="M0 0 C4.53897705 -0.02465392 9.07791543 -0.04283789 13.61694336 -0.05493164 C15.16219766 -0.0599714 16.70744716 -0.0668032 18.25268555 -0.07543945 C20.46925029 -0.08752076 22.68575218 -0.09323173 24.90234375 -0.09765625 C25.5971434 -0.10281754 26.29194305 -0.10797882 27.00779724 -0.11329651 C28.6722933 -0.11349277 30.33665499 -0.06189129 32 0 C33 1 33 1 33.1875 4.25 C33.01338941 7.73221175 32.50198876 9.90214817 31 13 C30.67 13 30.34 13 30 13 C29.875 5.375 29.875 5.375 31 2 C21.1 2.33 11.2 2.66 1 3 C0.67 7.62 0.34 12.24 0 17 C-0.33 18.65 -0.66 20.3 -1 22 C-1.21698487 24.43505237 -1.40290745 26.87301384 -1.5625 29.3125 C-1.64628906 30.56675781 -1.73007812 31.82101562 -1.81640625 33.11328125 C-1.87699219 34.06589844 -1.93757813 35.01851563 -2 36 C-2.33 36 -2.66 36 -3 36 C-3.02909763 32.75001888 -3.04683161 29.50007143 -3.0625 26.25 C-3.07087891 25.32960938 -3.07925781 24.40921875 -3.08789062 23.4609375 C-3.09111328 22.57148438 -3.09433594 21.68203125 -3.09765625 20.765625 C-3.10289307 19.94868164 -3.10812988 19.13173828 -3.11352539 18.29003906 C-3.00263335 16.05312005 -2.57837748 14.15535981 -2 12 C-1.93375493 10.25113019 -1.91447405 8.49997252 -1.9375 6.75 C-1.94652344 5.85796875 -1.95554687 4.9659375 -1.96484375 4.046875 C-1.97644531 3.37140625 -1.98804688 2.6959375 -2 2 C-1.34 2 -0.68 2 0 2 C0 1.34 0 0.68 0 0 Z " fill="#A1BF53" transform="translate(312,243)"/>
<path d="M0 0 C2.25 -0.375 2.25 -0.375 5 0 C7.55245318 2.96636451 8.90817396 4.94400059 9.25 8.875 C9.1675 9.57625 9.085 10.2775 9 11 C8.01 11 7.02 11 6 11 C5.175 11.350625 4.35 11.70125 3.5 12.0625 C1 13 1 13 -2 12 C-2 11.34 -2 10.68 -2 10 C-0.68 9.67 0.64 9.34 2 9 C-0.97 9 -3.94 9 -7 9 C-6.6875 6.625 -6.6875 6.625 -6 4 C-3 2 -3 2 0 2 C0 1.34 0 0.68 0 0 Z " fill="#464057" transform="translate(227,164)"/>
<path d="M0 0 C0.66 0 1.32 0 2 0 C2.125 2.875 2.125 2.875 2 6 C1.34 6.66 0.68 7.32 0 8 C0.33 8 0.66 8 1 8 C0.57910004 13.60461531 0.08386889 18.72086547 -2 24 C-2.99 24 -3.98 24 -5 24 C-5 23.34 -5 22.68 -5 22 C-5.99 22.33 -6.98 22.66 -8 23 C-7.68985608 20.91631462 -7.3767948 18.83306332 -7.0625 16.75 C-6.88847656 15.58984375 -6.71445313 14.4296875 -6.53515625 13.234375 C-6.1272264 10.76893039 -5.66098697 8.40575438 -5 6 C-4.01 6 -3.02 6 -2 6 C-1.34 4.02 -0.68 2.04 0 0 Z " fill="#555062" transform="translate(262,149)"/>
<path d="M0 0 C19.8 0.495 19.8 0.495 40 1 C40 1.66 40 2.32 40 3 C40.66 3 41.32 3 42 3 C42 3.66 42 4.32 42 5 C42.66 5 43.32 5 44 5 C44.05797565 8.93743833 44.09358789 12.87476719 44.125 16.8125 C44.14175781 17.93205078 44.15851563 19.05160156 44.17578125 20.20507812 C44.18544922 21.81479492 44.18544922 21.81479492 44.1953125 23.45703125 C44.21102295 24.9416687 44.21102295 24.9416687 44.22705078 26.45629883 C44 29 44 29 42 32 C42.02094727 31.25838623 42.04189453 30.51677246 42.06347656 29.75268555 C42.14654137 26.3977612 42.19863014 23.04305293 42.25 19.6875 C42.28351563 18.52025391 42.31703125 17.35300781 42.3515625 16.15039062 C42.36445313 15.03212891 42.37734375 13.91386719 42.390625 12.76171875 C42.41157227 11.73006592 42.43251953 10.69841309 42.45410156 9.63549805 C42.21525007 6.95732581 42.21525007 6.95732581 40.50585938 5.171875 C36.90445434 3.48766376 33.41722135 3.51989198 29.515625 3.48828125 C28.70003113 3.47033005 27.88443726 3.45237885 27.04412842 3.43388367 C24.44613777 3.3798198 21.84833042 3.34589818 19.25 3.3125 C17.4856516 3.27932339 15.72132737 3.24483341 13.95703125 3.20898438 C9.63815317 3.1240958 5.31932908 3.05726623 1 3 C0.67 2.01 0.34 1.02 0 0 Z " fill="#ABC363" transform="translate(313,230)"/>
<path d="M0 0 C-0.25 1.8125 -0.25 1.8125 -1 4 C-1.639375 4.474375 -2.27875 4.94875 -2.9375 5.4375 C-5.47491335 7.35978284 -5.87606799 9.07777678 -7 12 C-7.99 12.66 -8.98 13.32 -10 14 C-10.33 14.99 -10.66 15.98 -11 17 C-10.34 17 -9.68 17 -9 17 C-9.66 22.28 -10.32 27.56 -11 33 C-11.66 33 -12.32 33 -13 33 C-13.33 34.32 -13.66 35.64 -14 37 C-14.53594401 12.73364629 -14.53594401 12.73364629 -4.875 2.625 C-2 0 -2 0 0 0 Z M-12 17 C-11 19 -11 19 -11 19 Z " fill="#2E2F37" transform="translate(230,249)"/>
<path d="M0 0 C2 2 2 2 2.125 5.125 C2.08375 6.07375 2.0425 7.0225 2 8 C5.3 8 8.6 8 12 8 C12 8.33 12 8.66 12 9 C9.69 9.33 7.38 9.66 5 10 C4.97277483 12.20826378 4.95350271 14.41662638 4.9375 16.625 C4.92589844 17.85476562 4.91429687 19.08453125 4.90234375 20.3515625 C4.90666792 23.87856771 4.90666792 23.87856771 5.5 26.82226562 C6.01646383 30.10463536 6.11346959 33.17138661 6.09765625 36.4921875 C6.09443359 37.69101562 6.09121094 38.88984375 6.08789062 40.125 C6.07951172 41.3625 6.07113281 42.6 6.0625 43.875 C6.05798828 45.13570313 6.05347656 46.39640625 6.04882812 47.6953125 C6.0370796 50.79692386 6.02065167 53.89843725 6 57 C5.67 57 5.34 57 5 57 C4.90912109 55.35451172 4.90912109 55.35451172 4.81640625 53.67578125 C4.73195502 52.22134346 4.64730934 50.76691695 4.5625 49.3125 C4.52318359 48.59126953 4.48386719 47.87003906 4.44335938 47.12695312 C4.21729307 43.31860529 3.76783712 39.74168249 3 36 C2.82527204 33.77291187 2.68274639 31.54319321 2.5625 29.3125 C2.14503301 22.47816138 1.46334091 15.7027374 0.66040039 8.90356445 C0.30996908 5.91544956 0 3.01180196 0 0 Z " fill="#B1CA65" transform="translate(185,224)"/>
<path d="M0 0 C0.33 0.66 0.66 1.32 1 2 C6.28 2 11.56 2 17 2 C17.33 3.32 17.66 4.64 18 6 C17 7 17 7 15.05053711 7.11352539 C14.2178833 7.10828857 13.38522949 7.10305176 12.52734375 7.09765625 C11.62822266 7.09443359 10.72910156 7.09121094 9.80273438 7.08789062 C8.85720703 7.07951172 7.91167969 7.07113281 6.9375 7.0625 C5.98810547 7.05798828 5.03871094 7.05347656 4.06054688 7.04882812 C1.70696935 7.0370011 -0.64648477 7.02052025 -3 7 C-2.67 5.35 -2.34 3.7 -2 2 C-1.34 2 -0.68 2 0 2 C0 1.34 0 0.68 0 0 Z " fill="#3E3C50" transform="translate(251,274)"/>
<path d="M0 0 C0.66 0 1.32 0 2 0 C2.08564209 0.93384521 2.17128418 1.86769043 2.25952148 2.82983398 C2.57838178 6.28347208 2.90122319 9.73668909 3.22680664 13.18969727 C3.36708701 14.68629216 3.50576322 16.1830383 3.64282227 17.67993164 C3.83972692 19.82740078 4.04233189 21.97426581 4.24609375 24.12109375 C4.42676392 26.06133423 4.42676392 26.06133423 4.61108398 28.04077148 C4.67896561 30.88194527 4.67896561 30.88194527 6 32 C6.23653523 34.52596259 6.42173692 37.03107207 6.5625 39.5625 C6.60568359 40.27341797 6.64886719 40.98433594 6.69335938 41.71679688 C6.79971777 43.47761912 6.90038846 45.2387832 7 47 C8.65 47.66 10.3 48.32 12 49 C12 49.66 12 50.32 12 51 C6.25 49.25 6.25 49.25 4 47 C3.6076355 45.19865417 3.6076355 45.19865417 3.40576172 42.99682617 C3.32582977 42.17224411 3.24589783 41.34766205 3.1635437 40.49809265 C3.04778488 39.15905632 3.04778488 39.15905632 2.9296875 37.79296875 C2.84373322 36.87542313 2.75777893 35.9578775 2.66921997 35.01252747 C2.4886953 33.06854825 2.31245201 31.12416745 2.14013672 29.17944336 C1.87692759 26.20925191 1.60180389 23.24036341 1.32421875 20.27148438 C1.15034252 18.38287674 0.97714336 16.49420662 0.8046875 14.60546875 C0.72346649 13.71885056 0.64224548 12.83223236 0.55856323 11.91874695 C0.20672596 7.93320691 -0.10605823 4.00601487 0 0 Z " fill="#AEC76A" transform="translate(191,281)"/>
<path d="M0 0 C0.495 0.99 0.495 0.99 1 2 C-2.09315291 1.53134047 -4.49351683 0.78065919 -7.375 -0.5 C-15.01044912 -3.65949619 -22.869659 -3.11003469 -31 -3 C-31 -2.34 -31 -1.68 -31 -1 C-34.13498292 0.85776765 -36.37471432 1.20140476 -40 1 C-29.16238877 -9.47635752 -11.90071664 -7.59746498 0 0 Z " fill="#374626" transform="translate(270,248)"/>
<path d="M0 0 C-0.11458693 1.43836751 -0.24209116 2.87570966 -0.375 4.3125 C-0.44460938 5.11300781 -0.51421875 5.91351563 -0.5859375 6.73828125 C-1 9 -1 9 -3 12 C-6.125 12.1875 -6.125 12.1875 -9 12 C-9.24045528 7.91226018 -8.66783878 4.75263725 -7 1 C-4.10758195 -1.14598758 -3.50082948 -1.16694316 0 0 Z " fill="#54505F" transform="translate(279,190)"/>
<path d="M0 0 C1.57156655 3.1431331 0.11705576 5.365464 -0.9375 8.625 C-1.31777344 9.81351563 -1.69804687 11.00203125 -2.08984375 12.2265625 C-2.39019531 13.14179688 -2.69054687 14.05703125 -3 15 C-4.98 15 -6.96 15 -9 15 C-10.46726798 11.18510326 -9.43336419 8.70988378 -8 5 C-6.34385343 4.61781233 -4.67542976 4.28604898 -3 4 C-2.67 4.33 -2.34 4.66 -2 5 C-2 3.68 -2 2.36 -2 1 C-1.34 0.67 -0.68 0.34 0 0 Z " fill="#6F6977" transform="translate(254,187)"/>
<path d="M0 0 C0.33 0.66 0.66 1.32 1 2 C1.66 2 2.32 2 3 2 C2.67 2.66 2.34 3.32 2 4 C1.67 4 1.34 4 1 4 C1.99 4 2.98 4 4 4 C6.01151741 3.36893571 8.01363702 2.70626239 10 2 C10.33 2.99 10.66 3.98 11 5 C9.02 5.33 7.04 5.66 5 6 C4.67 7.65 4.34 9.3 4 11 C3.34 10.34 2.68 9.68 2 9 C1.54625 9.495 1.0925 9.99 0.625 10.5 C-1 12 -1 12 -3 12 C-3.66 13.98 -4.32 15.96 -5 18 C-6.57156655 14.8568669 -5.11705576 12.634536 -4.0625 9.375 C-3.68222656 8.18648437 -3.30195313 6.99796875 -2.91015625 5.7734375 C-2.60980469 4.85820312 -2.30945313 3.94296875 -2 3 C-2.66 2.67 -3.32 2.34 -4 2 C-2.68 2 -1.36 2 0 2 C0 1.34 0 0.68 0 0 Z " fill="#6A6576" transform="translate(226,171)"/>
<path d="M0 0 C0.33 0 0.66 0 1 0 C1.02578125 0.75023437 1.0515625 1.50046875 1.078125 2.2734375 C1.52815312 10.39439952 3.3815631 16.7631262 7 24 C5.35 24.33 3.7 24.66 2 25 C0.14223235 21.86501708 -0.20140476 19.62528568 0 16 C-0.66 16 -1.32 16 -2 16 C-2 13.69 -2 11.38 -2 9 C-1.34 9 -0.68 9 0 9 C0 6.03 0 3.06 0 0 Z " fill="#3F3D52" transform="translate(219,273)"/>
<path d="M0 0 C0.556875 0.226875 1.11375 0.45375 1.6875 0.6875 C2.0175 2.3375 2.3475 3.9875 2.6875 5.6875 C2.0275 5.6875 1.3675 5.6875 0.6875 5.6875 C0.6875 6.3475 0.6875 7.0075 0.6875 7.6875 C-3.33054691 8.52848656 -6.33053543 8.74154945 -10.3125 7.6875 C-8.07735866 3.33485634 -5.4026838 -0.73009241 0 0 Z " fill="#5D5965" transform="translate(266.3125,137.3125)"/>
<path d="M0 0 C0.33 0 0.66 0 1 0 C1.13526139 2.24834496 1.23210804 4.49902514 1.3125 6.75 C1.37050781 8.00296875 1.42851562 9.2559375 1.48828125 10.546875 C1 14 1 14 -1.33203125 16.453125 C-4 18 -4 18 -7 18 C-7 20.97 -7 23.94 -7 27 C-7.33 27 -7.66 27 -8 27 C-8 23.7 -8 20.4 -8 17 C-10.64 17 -13.28 17 -16 17 C-12.73386305 15.08697693 -10.00554752 14.64325339 -6.25 14.375 C-4.77273438 14.26285156 -4.77273438 14.26285156 -3.265625 14.1484375 C-2.51796875 14.09945313 -1.7703125 14.05046875 -1 14 C-1.01160156 13.07316406 -1.02320313 12.14632813 -1.03515625 11.19140625 C-1.04417969 9.99386719 -1.05320312 8.79632813 -1.0625 7.5625 C-1.07410156 6.36753906 -1.08570313 5.17257812 -1.09765625 3.94140625 C-1 1 -1 1 0 0 Z " fill="#A5BD64" transform="translate(304,314)"/>
<path d="M0 0 C0.97591583 3.38317487 0.85856655 5.5657338 0 9 C0.66 9 1.32 9 2 9 C2 9.66 2 10.32 2 11 C2.66 11 3.32 11 4 11 C3.67 13.31 3.34 15.62 3 18 C2.67 17.34 2.34 16.68 2 16 C-0.02045442 16.60183749 -2.02111039 17.27306096 -4 18 C-4.33 18.66 -4.66 19.32 -5 20 C-3.76583013 13.17576662 -2.1084005 6.60632156 0 0 Z " fill="#716C7C" transform="translate(255,162)"/>
<path d="M0 0 C0.33 0 0.66 0 1 0 C0.59060025 6.76215448 -0.56953809 12.67162748 -3 19 C-4.1577506 15.52674819 -4.06866652 12.63932552 -4 9 C-7.11785113 9.64644661 -7.11785113 9.64644661 -8 12 C-7.34 9.03 -6.68 6.06 -6 3 C-5.195625 2.87625 -4.39125 2.7525 -3.5625 2.625 C-2.716875 2.41875 -1.87125 2.2125 -1 2 C-0.67 1.34 -0.34 0.68 0 0 Z " fill="#625C6C" transform="translate(286,162)"/>
<path d="M0 0 C3.96538668 5.94808002 3.56533918 12.06104245 3 19 C1.52865577 25.09883621 -0.58295953 30.42520809 -5 35 C-4.40848854 31.47583697 -3.4102023 28.61600077 -1.9375 25.375 C1.16494455 17.23248306 0.31951346 8.56473569 0 0 Z " fill="#324027" transform="translate(283,265)"/>
<path d="M0 0 C1.65 0.33 3.3 0.66 5 1 C5 4.33333333 5 7.66666667 5 11 C2.69 11 0.38 11 -2 11 C-1.125 3.375 -1.125 3.375 0 0 Z " fill="#655E6D" transform="translate(219,191)"/>
<path d="M0 0 C2.39415859 3.73374733 2.26727419 7.08008484 2.25 11.4375 C2.25515625 12.73558594 2.2603125 14.03367187 2.265625 15.37109375 C2.01935446 18.7355839 1.46022081 20.99264047 0 24 C-0.66 23.67 -1.32 23.34 -2 23 C-1.86068862 19.9163358 -1.71240719 16.83316583 -1.5625 13.75 C-1.52318359 12.87730469 -1.48386719 12.00460937 -1.44335938 11.10546875 C-1.40146484 10.26113281 -1.35957031 9.41679687 -1.31640625 8.546875 C-1.27974854 7.77182617 -1.24309082 6.99677734 -1.20532227 6.19824219 C-1.00396985 4.0425024 -0.58270703 2.08198525 0 0 Z " fill="#2C2C3C" transform="translate(282,265)"/>
<path d="M0 0 C1.32 0.66 2.64 1.32 4 2 C-12.80608365 11.54610266 -12.80608365 11.54610266 -23 11 C-23 12.98 -23 14.96 -23 17 C-23.33 17 -23.66 17 -24 17 C-24 14.69 -24 12.38 -24 10 C-21.36 10 -18.72 10 -16 10 C-16 9.34 -16 8.68 -16 8 C-14.75336669 7.49166409 -13.50250613 6.99368855 -12.25 6.5 C-11.55390625 6.2215625 -10.8578125 5.943125 -10.140625 5.65625 C-8 5 -8 5 -4 5 C-4 4.34 -4 3.68 -4 3 C-2 1.375 -2 1.375 0 0 Z " fill="#B8D06E" transform="translate(329,303)"/>
<path d="M0 0 C2 2 2 2 2.125 5.125 C2.08375 6.07375 2.0425 7.0225 2 8 C5.3 8 8.6 8 12 8 C12 8.33 12 8.66 12 9 C9.69 9.33 7.38 9.66 5 10 C4.67 13.63 4.34 17.26 4 21 C3.34 21 2.68 21 2 21 C1.66465271 18.06271706 1.33163987 15.12520182 1 12.1875 C0.90460938 11.35412109 0.80921875 10.52074219 0.7109375 9.66210938 C0.62070313 8.85966797 0.53046875 8.05722656 0.4375 7.23046875 C0.35371094 6.49207764 0.26992187 5.75368652 0.18359375 4.99291992 C0 3 0 3 0 0 Z " fill="#A6C25F" transform="translate(185,224)"/>
<path d="M0 0 C0.99 0.33 1.98 0.66 3 1 C2.85820962 3.22942748 2.71140302 5.45853628 2.5625 7.6875 C2.48128906 8.92886719 2.40007812 10.17023438 2.31640625 11.44921875 C2.05388599 14.39527946 1.57803043 17.10984783 1 20 C0.78301513 22.43505237 0.59709255 24.87301384 0.4375 27.3125 C0.35371094 28.56675781 0.26992188 29.82101562 0.18359375 31.11328125 C0.12300781 32.06589844 0.06242187 33.01851563 0 34 C-0.33 34 -0.66 34 -1 34 C-1.02909763 30.75001888 -1.04683161 27.50007143 -1.0625 24.25 C-1.07087891 23.32960938 -1.07925781 22.40921875 -1.08789062 21.4609375 C-1.09111328 20.57148438 -1.09433594 19.68203125 -1.09765625 18.765625 C-1.10289307 17.94868164 -1.10812988 17.13173828 -1.11352539 16.29003906 C-1.00263335 14.05312005 -0.57837748 12.15535981 0 10 C0.06624507 8.25113019 0.08552595 6.49997252 0.0625 4.75 C0.05347656 3.85796875 0.04445313 2.9659375 0.03515625 2.046875 C0.02355469 1.37140625 0.01195312 0.6959375 0 0 Z " fill="#B2CC68" transform="translate(310,245)"/>
<path d="M0 0 C1.2065625 0.0309375 1.2065625 0.0309375 2.4375 0.0625 C2.03917969 0.49820313 1.64085937 0.93390625 1.23046875 1.3828125 C-2.05186831 5.07244686 -4.55649746 8.49327198 -6.5625 13.0625 C-7.5525 12.7325 -8.5425 12.4025 -9.5625 12.0625 C-9.25 10.1875 -9.25 10.1875 -8.5625 8.0625 C-7.5725 7.4025 -6.5825 6.7425 -5.5625 6.0625 C-4.84090576 4.41886866 -4.16898579 2.75199614 -3.5625 1.0625 C-2.5625 0.0625 -2.5625 0.0625 0 0 Z " fill="#363449" transform="translate(228.5625,253.9375)"/>
<path d="M0 0 C0.66 0.66 1.32 1.32 2 2 C1.625 5.625 1.625 5.625 1 9 C0.01 9.33 -0.98 9.66 -2 10 C-2.33 10.66 -2.66 11.32 -3 12 C-3.66 12 -4.32 12 -5 12 C-5.66 13.32 -6.32 14.64 -7 16 C-7.99 15.67 -8.98 15.34 -10 15 C-9.0925 14.195625 -8.185 13.39125 -7.25 12.5625 C-3.56341773 8.91959762 -1.81052349 4.79256219 0 0 Z " fill="#424253" transform="translate(279,286)"/>
<path d="M0 0 C1.875 0.625 1.875 0.625 4 2 C5.25 5.125 5.25 5.125 6 8 C3.125 8.625 3.125 8.625 0 9 C-0.66 8.34 -1.32 7.68 -2 7 C-2 6.01 -2 5.02 -2 4 C-2.66 3.67 -3.32 3.34 -4 3 C-2.68 2.01 -1.36 1.02 0 0 Z " fill="#5B556C" transform="translate(287,147)"/>
<path d="M0 0 C3.21365891 1.10815825 3.9914224 1.98529554 5.75 5 C7 8 7 8 7 10 C9.31 10.66 11.62 11.32 14 12 C14 12.66 14 13.32 14 14 C8.29673016 12.71676429 3.61585764 9.57947452 0 5 C-0.2265625 2.26953125 -0.2265625 2.26953125 0 0 Z " fill="#2F3133" transform="translate(225,298)"/>
<path d="M0 0 C1.98 0.66 3.96 1.32 6 2 C6.8931507 8.58183362 6.95494281 14.42150508 6 21 C5.67 21 5.34 21 5 21 C4.96132813 19.85724609 4.96132813 19.85724609 4.921875 18.69140625 C4.53517629 11.65173196 3.36945112 6.20605881 0 0 Z " fill="#434257" transform="translate(275,261)"/>
<path d="M0 0 C0.33 0 0.66 0 1 0 C1.05389087 1.95803507 1.09274217 3.91648909 1.125 5.875 C1.14820313 6.96554688 1.17140625 8.05609375 1.1953125 9.1796875 C1 12 1 12 -1 14 C-4.125 13.625 -4.125 13.625 -7 13 C-6.67 12.01 -6.34 11.02 -6 10 C-5.34 10 -4.68 10 -4 10 C-4 9.34 -4 8.68 -4 8 C-3.01 8 -2.02 8 -1 8 C-0.67 5.36 -0.34 2.72 0 0 Z " fill="#4B4958" transform="translate(321,210)"/>
<path d="M0 0 C0.33 0 0.66 0 1 0 C1.05422947 1.4370809 1.09289723 2.87475462 1.125 4.3125 C1.14820313 5.11300781 1.17140625 5.91351563 1.1953125 6.73828125 C1 9 1 9 -1 12 C-1.99 12 -2.98 12 -4 12 C-4.32966968 7.79671152 -4.4227293 5.64091217 -2.0625 2.0625 C-1.381875 1.381875 -0.70125 0.70125 0 0 Z " fill="#423C57" transform="translate(282,169)"/>
<path d="M0 0 C1.65 0.33 3.3 0.66 5 1 C5 1.99 5 2.98 5 4 C4.34 4 3.68 4 3 4 C3 6.31 3 8.62 3 11 C2.34 11 1.68 11 1 11 C1 10.34 1 9.68 1 9 C0.01 9.33 -0.98 9.66 -2 10 C-1.34 6.7 -0.68 3.4 0 0 Z " fill="#464056" transform="translate(256,162)"/>
<path d="M0 0 C0.33 0 0.66 0 1 0 C0.67 6.6 0.34 13.2 0 20 C1.98 19.67 3.96 19.34 6 19 C5.34 19.99 4.68 20.98 4 22 C2.35 21.67 0.7 21.34 -1 21 C-1.02895976 17.87501937 -1.04678483 14.7500731 -1.0625 11.625 C-1.07087891 10.73554688 -1.07925781 9.84609375 -1.08789062 8.9296875 C-1.09111328 8.07890625 -1.09433594 7.228125 -1.09765625 6.3515625 C-1.10289307 5.56604004 -1.10812988 4.78051758 -1.11352539 3.97119141 C-1 2 -1 2 0 0 Z " fill="#B1CB6B" transform="translate(308,279)"/>
<path d="M0 0 C0.99 0.33 1.98 0.66 3 1 C2.34 4.96 1.68 8.92 1 13 C0.34 13 -0.32 13 -1 13 C-1.33 14.32 -1.66 15.64 -2 17 C-2 13.04 -2 9.08 -2 5 C-1.34 5 -0.68 5 0 5 C0 3.35 0 1.7 0 0 Z " fill="#2E2B42" transform="translate(218,269)"/>
<path d="M0 0 C0.33 0.66 0.66 1.32 1 2 C-4.445 4.475 -4.445 4.475 -10 7 C-10.33 5.68 -10.66 4.36 -11 3 C-7.16674383 0.29417212 -4.67461851 -0.32613618 0 0 Z " fill="#91BA3A" transform="translate(237,243)"/>
<path d="M0 0 C0.66 0.99 1.32 1.98 2 3 C1.01 3.33 0.02 3.66 -1 4 C-2.02281518 6.09719872 -2.02281518 6.09719872 -2.6875 8.5625 C-2.93886719 9.38878906 -3.19023437 10.21507812 -3.44921875 11.06640625 C-3.63097656 11.70449219 -3.81273437 12.34257812 -4 13 C-5.98 13 -7.96 13 -10 13 C-8.38405168 10.95880212 -6.7143618 8.95927063 -5 7 C-4.34 7 -3.68 7 -3 7 C-2.690625 6.21625 -2.38125 5.4325 -2.0625 4.625 C-1 2 -1 2 0 0 Z " fill="#8AAB45" transform="translate(281,295)"/>
<path d="M0 0 C0.66 0 1.32 0 2 0 C1.875 3.25 1.875 3.25 1 7 C-2.0625 9.4375 -2.0625 9.4375 -5 11 C-5.6875 9.25 -5.6875 9.25 -6 7 C-4.6875 4.75 -4.6875 4.75 -3 3 C-2.34 3 -1.68 3 -1 3 C-0.67 2.01 -0.34 1.02 0 0 Z " fill="#2B3333" transform="translate(277,295)"/>
<path d="M0 0 C0.66 0 1.32 0 2 0 C1.74478802 3.44536172 0.78710059 4.18975817 -1.875 6.5625 C-2.90625 7.366875 -3.9375 8.17125 -5 9 C-6.01680311 9.98290968 -7.02738219 10.97334787 -8 12 C-8.33 11.34 -8.66 10.68 -9 10 C-7.8758824 8.70756532 -6.75067408 7.41607925 -5.625 6.125 C-4.99851563 5.40570313 -4.37203125 4.68640625 -3.7265625 3.9453125 C-2.52573166 2.5923402 -1.2791655 1.2791655 0 0 Z " fill="#324029" transform="translate(228,249)"/>
<path d="M0 0 C0 0.66 0 1.32 0 2 C-1.6396875 2.2165625 -1.6396875 2.2165625 -3.3125 2.4375 C-6.93122987 2.88288104 -6.93122987 2.88288104 -10 4 C-11.99961564 4.03920815 -14.00049364 4.04443347 -16 4 C-16 3.01 -16 2.02 -16 1 C-13.70839646 0.83246763 -11.41671509 0.66599948 -9.125 0.5 C-7.84882813 0.4071875 -6.57265625 0.314375 -5.2578125 0.21875 C-3.50763316 0.10123196 -1.75412035 0 0 0 Z " fill="#484559" transform="translate(260,307)"/>
<path d="M0 0 C3.37462715 0.54723683 5.08235 1.0549 8 3 C7.01 3 6.02 3 5 3 C5 3.66 5 4.32 5 5 C3.02 5 1.04 5 -1 5 C-0.67 3.35 -0.34 1.7 0 0 Z " fill="#564B61" transform="translate(221,168)"/>
<path d="M0 0 C0.66 0.66 1.32 1.32 2 2 C5.08347826 2.16681109 5.08347826 2.16681109 8 2 C8 2.99 8 3.98 8 5 C3.98195309 5.84098656 0.98196457 6.05404945 -3 5 C-2.01 3.35 -1.02 1.7 0 0 Z " fill="#49445D" transform="translate(259,140)"/>
<path d="M0 0 C3 2 3 2 4 5 C4.66 5.33 5.32 5.66 6 6 C5.34 7.32 4.68 8.64 4 10 C2.02 7.36 0.04 4.72 -2 2 C-1.34 1.34 -0.68 0.68 0 0 Z " fill="#D7DAE5" transform="translate(225,291)"/>
<path d="M0 0 C0.33 0 0.66 0 1 0 C1.06058594 0.845625 1.12117187 1.69125 1.18359375 2.5625 C1.63959033 8.7359922 2.15820112 14.86689384 3 21 C1.07463062 19.39441516 0.08925833 18.52230522 -0.34057617 16.00708008 C-0.32486572 15.26868896 -0.30915527 14.53029785 -0.29296875 13.76953125 C-0.28330078 12.96708984 -0.27363281 12.16464844 -0.26367188 11.33789062 C-0.23853516 10.50451172 -0.21339844 9.67113281 -0.1875 8.8125 C-0.17396484 7.96751953 -0.16042969 7.12253906 -0.14648438 6.25195312 C-0.11115799 4.16769616 -0.05735139 2.08376723 0 0 Z " fill="#8FAF48" transform="translate(213,272)"/>
<path d="M0 0 C0.99 0 1.98 0 3 0 C2.67 1.32 2.34 2.64 2 4 C1.071875 4.12375 1.071875 4.12375 0.125 4.25 C-2.18437567 4.81258459 -2.18437567 4.81258459 -3.25 7.0625 C-3.4975 7.701875 -3.745 8.34125 -4 9 C-4.33 8.34 -4.66 7.68 -5 7 C-1.125 1.125 -1.125 1.125 0 0 Z " fill="#DDDEED" transform="translate(227,258)"/>
<path d="M0 0 C0.66 0 1.32 0 2 0 C2.25 2.8125 2.25 2.8125 2 6 C0.125 7.875 0.125 7.875 -2 9 C-2.66 9 -3.32 9 -4 9 C-4 8.01 -4 7.02 -4 6 C-3.34 6 -2.68 6 -2 6 C-1.34 4.02 -0.68 2.04 0 0 Z " fill="#433C55" transform="translate(262,149)"/>
<path d="M0 0 C0 0.99 0 1.98 0 3 C-4.20406102 6.54717649 -7.76933149 6.2659662 -13 6 C-10.11980724 4.53347983 -7.20691485 3.17952126 -4.25 1.875 C-3.05117188 1.34519531 -3.05117188 1.34519531 -1.828125 0.8046875 C-1.22484375 0.53914063 -0.6215625 0.27359375 0 0 Z " fill="#87A641" transform="translate(269,308)"/>
<path d="M0 0 C1.32 0.99 2.64 1.98 4 3 C3.67 3.99 3.34 4.98 3 6 C1.02 6 -0.96 6 -3 6 C-2.67 4.68 -2.34 3.36 -2 2 C-1.34 2 -0.68 2 0 2 C0 1.34 0 0.68 0 0 Z " fill="#2D2B3F" transform="translate(251,274)"/>
<path d="M0 0 C2.475 0.495 2.475 0.495 5 1 C4.34 2.32 3.68 3.64 3 5 C2.67 5 2.34 5 2 5 C1.67 7.31 1.34 9.62 1 12 C0.67 12 0.34 12 0 12 C0 8.04 0 4.08 0 0 Z " fill="#585061" transform="translate(178,210)"/>
<path d="M0 0 C0.66 0.99 1.32 1.98 2 3 C1.67 3.99 1.34 4.98 1 6 C0.01 6.33 -0.98 6.66 -2 7 C-0.35 7 1.3 7 3 7 C3 7.33 3 7.66 3 8 C1.02 8 -0.96 8 -3 8 C-3.36923077 3.44615385 -3.36923077 3.44615385 -1.5 1.1875 C-1.005 0.795625 -0.51 0.40375 0 0 Z " fill="#888391" transform="translate(273,194)"/>
<path d="M0 0 C-1.47692308 4.67692308 -1.47692308 4.67692308 -4.125 6.3125 C-5.053125 6.6528125 -5.053125 6.6528125 -6 7 C-6.33 6.01 -6.66 5.02 -7 4 C-3.17391304 0 -3.17391304 0 0 0 Z " fill="#444055" transform="translate(257,178)"/>
<path d="M0 0 C1.70884005 1.62339805 3.37446717 3.29319053 5 5 C5 5.66 5 6.32 5 7 C5.66 7 6.32 7 7 7 C7 7.66 7 8.32 7 9 C4.69 8.67 2.38 8.34 0 8 C0.185625 7.236875 0.37125 6.47375 0.5625 5.6875 C1.22819173 2.91032625 1.22819173 2.91032625 0 0 Z " fill="#91B542" transform="translate(217,295)"/>
<path d="M0 0 C0.33 0 0.66 0 1 0 C1.2396943 5.63281599 0.38529821 10.54538831 -1 16 C-3 13 -3 13 -2.75 9.6875 C-2.0662376 6.32566822 -1.17734651 3.21808045 0 0 Z " fill="#99BD3D" transform="translate(308,272)"/>
<path d="M0 0 C0 0.99 0 1.98 0 3 C-1.98 3.33 -3.96 3.66 -6 4 C-6.33 5.65 -6.66 7.3 -7 9 C-7.66 7.68 -8.32 6.36 -9 5 C-6.41680366 1.12520549 -4.65792984 0 0 0 Z " fill="#948F9A" transform="translate(237,173)"/>
<path d="M0 0 C1.18414294 3.55242882 0.69535532 4.69830562 -0.4375 8.1875 C-0.72496094 9.08855469 -1.01242187 9.98960937 -1.30859375 10.91796875 C-1.53675781 11.60503906 -1.76492188 12.29210937 -2 13 C-4 10 -4 10 -3.625 7.8125 C-3.41875 7.214375 -3.2125 6.61625 -3 6 C-2.34 6 -1.68 6 -1 6 C-1.33 4.35 -1.66 2.7 -2 1 C-1.34 0.67 -0.68 0.34 0 0 Z " fill="#8F8893" transform="translate(262,160)"/>
<path d="M0 0 C0.66 0.33 1.32 0.66 2 1 C1.67 2.65 1.34 4.3 1 6 C-0.65 5.67 -2.3 5.34 -4 5 C-4.33 5.66 -4.66 6.32 -5 7 C-5 6.01 -5 5.02 -5 4 C-3.35 3.34 -1.7 2.68 0 2 C0 1.34 0 0.68 0 0 Z " fill="#8F8A94" transform="translate(293,155)"/>
<path d="M0 0 C2.475 0.495 2.475 0.495 5 1 C5 2.32 5 3.64 5 5 C3.35 4.67 1.7 4.34 0 4 C0 2.68 0 1.36 0 0 Z " fill="#363446" transform="translate(266,249)"/>
<path d="M0 0 C4.77576339 0.4682121 8.04476345 1.24331998 12 4 C8.35839192 5.21386936 7.66834531 4.6674695 4.3125 3.0625 C3.10013672 2.49208984 3.10013672 2.49208984 1.86328125 1.91015625 C1.24839844 1.60980469 0.63351562 1.30945313 0 1 C0 0.67 0 0.34 0 0 Z " fill="#303A22" transform="translate(259,245)"/>
<path d="M0 0 C0.99 0 1.98 0 3 0 C2.6875 1.875 2.6875 1.875 2 4 C1.01 4.66 0.02 5.32 -1 6 C-1.99 5.01 -2.98 4.02 -4 3 C-2.68 2.67 -1.36 2.34 0 2 C0 1.34 0 0.68 0 0 Z " fill="#6D6778" transform="translate(227,164)"/>
<path d="M0 0 C4.76132597 4.30055249 4.76132597 4.30055249 5 8 C4.01 9.485 4.01 9.485 3 11 C2.67 8.69 2.34 6.38 2 4 C1.34 4 0.68 4 0 4 C0 2.68 0 1.36 0 0 Z " fill="#323D2A" transform="translate(278,257)"/>
<path d="M0 0 C1.65 0.33 3.3 0.66 5 1 C3.35 2.98 1.7 4.96 0 7 C-1.33332095 4.3333581 -0.67102033 2.83319697 0 0 Z " fill="#8FB34A" transform="translate(221,250)"/>
<path d="M0 0 C0.66 0.33 1.32 0.66 2 1 C1.67 2.32 1.34 3.64 1 5 C0.01 4.67 -0.98 4.34 -2 4 C-2.66 4.99 -3.32 5.98 -4 7 C-4 5.35 -4 3.7 -4 2 C-2.125 0.9375 -2.125 0.9375 0 0 Z " fill="#4B4759" transform="translate(251,188)"/>
<path d="M0 0 C0.66 0.66 1.32 1.32 2 2 C1.625 4.625 1.625 4.625 1 7 C0.34 7 -0.32 7 -1 7 C-1.33 7.66 -1.66 8.32 -2 9 C-1.34 6.03 -0.68 3.06 0 0 Z " fill="#7F7685" transform="translate(280,165)"/>
<path d="M0 0 C1.32 0.66 2.64 1.32 4 2 C3.67 2.66 3.34 3.32 3 4 C0.37886292 4 -1.50935112 3.68707555 -4 3 C-2.68 2.01 -1.36 1.02 0 0 Z " fill="#85808A" transform="translate(287,147)"/>
<path d="M0 0 C-2.66559313 1.77706209 -5.0280615 2.87548273 -8 4 C-8 3.01 -8 2.02 -8 1 C-3.375 -1.125 -3.375 -1.125 0 0 Z " fill="#8CAE44" transform="translate(238,244)"/>
<path d="M0 0 C2 0.25 2 0.25 4 1 C4.33 1.99 4.66 2.98 5 4 C3.02 4 1.04 4 -1 4 C-1 1 -1 1 0 0 Z " fill="#423D54" transform="translate(289,154)"/>
<path d="M0 0 C1.65 0 3.3 0 5 0 C2.47043472 3.0916909 -0.22454612 3.90931332 -4 5 C-4 4.34 -4 3.68 -4 3 C-3.01 2.67 -2.02 2.34 -1 2 C-0.67 1.34 -0.34 0.68 0 0 Z " fill="#2F382D" transform="translate(263,308)"/>
<path d="M0 0 C0.6875 1.8125 0.6875 1.8125 1 4 C-0.3125 5.75 -0.3125 5.75 -2 7 C-2.66 7 -3.32 7 -4 7 C-4 5.68 -4 4.36 -4 3 C-2.68 3 -1.36 3 0 3 C0 2.01 0 1.02 0 0 Z " fill="#A6C358" transform="translate(336,297)"/>
<path d="M0 0 C0.33 0.66 0.66 1.32 1 2 C0.01 3.32 -0.98 4.64 -2 6 C-3.32 5.67 -4.64 5.34 -6 5 C-4.02 3.35 -2.04 1.7 0 0 Z " fill="#B9CD7F" transform="translate(328,288)"/>
<path d="M0 0 C4 4.625 4 4.625 4 8 C3.01 7.67 2.02 7.34 1 7 C0.67 4.69 0.34 2.38 0 0 Z " fill="#807A81" transform="translate(231,164)"/>
</svg>
