<?xml version="1.0" encoding="UTF-8"?>
<svg version="1.1" xmlns="http://www.w3.org/2000/svg" width="500" height="500">
<path d="M0 0 C1.16094177 -0.00845947 2.32188354 -0.01691895 3.51800537 -0.02563477 C5.4303598 -0.01652573 5.4303598 -0.01652573 7.38134766 -0.00723267 C8.73651554 -0.01129741 10.09168011 -0.01663875 11.44683838 -0.02316284 C15.12864538 -0.03685399 18.81020055 -0.03153052 22.49201202 -0.02202559 C26.34233791 -0.01443824 30.19264203 -0.02147202 34.04296875 -0.02618408 C40.50931679 -0.03164435 46.97556209 -0.02444297 53.44189453 -0.01016235 C60.92132742 0.00616474 68.400515 0.00087642 75.87994194 -0.01564157 C82.29785197 -0.02924877 88.71568808 -0.03117987 95.13360786 -0.02332556 C98.96840563 -0.0186448 102.80308803 -0.01803517 106.63787842 -0.02793503 C110.24289197 -0.03659136 113.84758878 -0.03060759 117.45256805 -0.01325226 C119.40931257 -0.00738312 121.36608382 -0.01631435 123.32281494 -0.02563477 C124.48375671 -0.01717529 125.64469849 -0.00871582 126.84082031 0 C128.35731674 0.00169662 128.35731674 0.00169662 129.90444946 0.00342751 C132.42041016 0.38095093 132.42041016 0.38095093 134.24642944 1.75632286 C135.87839511 4.0147392 135.78629339 5.62144816 135.73291016 8.38095093 C135.72904297 9.24720093 135.72517578 10.11345093 135.72119141 11.00595093 C135.42041016 13.38095093 135.42041016 13.38095093 133.42041016 16.38095093 C130.79541016 17.06845093 130.79541016 17.06845093 128.42041016 17.38095093 C128.09041016 19.03095093 127.76041016 20.68095093 127.42041016 22.38095093 C128.58088867 22.39029663 129.74136719 22.39964233 130.93701172 22.40927124 C135.24615747 22.44916969 139.55458915 22.51492776 143.86328125 22.58847046 C145.72744569 22.61668098 147.59172976 22.63789514 149.45605469 22.65194702 C152.13750457 22.67337576 154.81751602 22.72002391 157.49853516 22.77157593 C158.74718353 22.77341888 158.74718353 22.77341888 160.02105713 22.77529907 C163.74366891 22.86934663 165.81519397 22.9678938 168.94482422 25.10385132 C170.67794183 27.77836952 170.93533807 29.2536468 170.95166016 32.42391968 C170.96003906 33.40682983 170.96841797 34.38973999 170.97705078 35.4024353 C170.95835937 36.44722046 170.93966797 37.49200562 170.92041016 38.56845093 C170.906875 39.64546265 170.89333984 40.72247437 170.87939453 41.8321228 C170.39997284 60.55186731 165.05620515 78.7191621 151.61572266 92.34188843 C150.89126953 93.01477905 150.16681641 93.68766968 149.42041016 94.38095093 C148.81970703 94.95071655 148.21900391 95.52048218 147.60009766 96.10751343 C143.47667695 99.58832311 138.81172465 101.69882767 133.85791016 103.75595093 C133.23255371 104.01924194 132.60719727 104.28253296 131.96289062 104.55380249 C127.6497005 106.2373855 124.02477536 106.62983553 119.42041016 106.38095093 C119.38302734 107.27298218 119.34564453 108.16501343 119.30712891 109.08407593 C119.24138672 110.25454468 119.17564453 111.42501343 119.10791016 112.63095093 C119.04990234 113.79110718 118.99189453 114.95126343 118.93212891 116.14657593 C118.39810699 119.52192053 117.81263687 120.98872421 115.42041016 123.38095093 C112.73291016 124.13095093 112.73291016 124.13095093 110.42041016 124.38095093 C110.44103516 125.65970093 110.46166016 126.93845093 110.48291016 128.25595093 C110.54541016 132.13095093 110.54541016 132.13095093 109.42041016 134.38095093 C86.9620003 135.06770777 64.51498209 135.48721635 42.04541016 135.50595093 C40.98281982 135.50844849 39.92022949 135.51094604 38.82543945 135.51351929 C35.80758333 135.5193683 32.78982971 135.51794891 29.77197266 135.51376343 C28.86754425 135.51574738 27.96311584 135.51773132 27.03128052 135.51977539 C26.20143646 135.51666351 25.37159241 135.51355164 24.51660156 135.51034546 C23.79421295 135.50954987 23.07182434 135.50875427 22.32754517 135.50793457 C20.42041016 135.38095093 20.42041016 135.38095093 17.42041016 134.38095093 C15.81315381 131.16643824 16.36292831 127.94482557 16.42041016 124.38095093 C15.47166016 124.11282593 14.52291016 123.84470093 13.54541016 123.56845093 C10.42041016 122.38095093 10.42041016 122.38095093 8.42041016 119.38095093 C8.00589828 116.60562825 7.69383136 113.89461977 7.45556641 111.10360718 C7.37767883 110.2731488 7.29979126 109.44269043 7.21954346 108.58706665 C6.96642107 105.87316874 6.72475283 103.15837508 6.48291016 100.44345093 C6.22367228 97.63601592 5.96142051 94.82887337 5.69889832 92.02174377 C5.52349324 90.14488807 5.34902594 88.26794449 5.17549133 86.39091492 C4.34221158 77.4117258 3.38145722 68.44968983 2.37182617 59.48861694 C1.63551053 52.83200452 1.10095129 46.18386797 0.69067383 39.49887085 C0.44945328 36.71600945 -0.01757053 34.11150015 -0.57958984 31.38095093 C-0.64660491 28.94428327 -0.66487005 26.50593351 -0.64208984 24.06845093 C-0.63306641 22.81419312 -0.62404297 21.5599353 -0.61474609 20.26766968 C-0.60314453 19.31505249 -0.59154297 18.3624353 -0.57958984 17.38095093 C-2.88958984 17.05095093 -5.19958984 16.72095093 -7.57958984 16.38095093 C-8.39747776 13.48536388 -8.76851656 10.82631006 -8.82958984 7.81845093 C-8.85537109 7.05403687 -8.88115234 6.2896228 -8.90771484 5.50204468 C-8.11261353 0.36228259 -4.59565748 0.0051415 0 0 Z M125.42041016 38.38095093 C125.04456121 41.17929809 124.72668435 43.96306315 124.44775391 46.77157593 C124.36038467 47.62717102 124.27301544 48.48276611 124.18299866 49.36428833 C123.99838773 51.18667094 123.81612372 53.00929256 123.63598633 54.8321228 C123.36312699 57.57844361 123.07882081 60.3234051 122.79345703 63.06845093 C121.83246487 72.54437092 121.1132453 81.84673003 121.42041016 91.38095093 C130.11611188 89.55027688 137.27340811 85.92031481 143.42041016 79.38095093 C143.42041016 78.72095093 143.42041016 78.06095093 143.42041016 77.38095093 C144.08041016 77.38095093 144.74041016 77.38095093 145.42041016 77.38095093 C152.20223893 65.32230195 157.05912405 52.56212887 155.42041016 38.38095093 C153.59006961 36.55061038 150.68829024 37.25052295 148.23291016 37.24813843 C146.97736328 37.24684937 145.72181641 37.2455603 144.42822266 37.24423218 C143.44257324 37.24737427 143.44257324 37.24737427 142.43701172 37.25057983 C140.42879681 37.25592859 138.42080557 37.25063402 136.41259766 37.24423218 C135.15705078 37.24552124 133.90150391 37.2468103 132.60791016 37.24813843 C131.44646484 37.24926636 130.28501953 37.25039429 129.08837891 37.2515564 C126.49977732 37.07757619 126.49977732 37.07757619 125.42041016 38.38095093 Z " fill="#85BB1E" transform="translate(186.57958984375,207.61904907226563)"/>
<path d="M0 0 C0.29148149 4.40633196 0.57590575 8.81305327 0.85449219 13.22021484 C0.94967656 14.71154311 1.0466109 16.20276098 1.14550781 17.69384766 C1.83710102 28.14537363 2.12764627 38.52591449 2 49 C-1.6041872 47.82162502 -5.00492451 46.61814249 -8.375 44.875 C-9.06335938 44.52179688 -9.75171875 44.16859375 -10.4609375 43.8046875 C-10.96882813 43.53914063 -11.47671875 43.27359375 -12 43 C-12.24234375 43.67804688 -12.4846875 44.35609375 -12.734375 45.0546875 C-14.26395222 48.61425918 -16.22132282 51.83649159 -18.25 55.125 C-23.18406921 63.23295639 -27.84618845 71.46160959 -32 80 C-32.66 80 -33.32 80 -34 80 C-34.11029541 80.7230835 -34.22059082 81.44616699 -34.33422852 82.19116211 C-35.04390463 85.18523019 -36.10142808 87.29193605 -37.65234375 89.94140625 C-38.18150391 90.85470703 -38.71066406 91.76800781 -39.25585938 92.70898438 C-39.81080078 93.65064453 -40.36574219 94.59230469 -40.9375 95.5625 C-42.03077089 97.43832268 -43.12324971 99.31460727 -44.21484375 101.19140625 C-44.70073975 102.01842041 -45.18663574 102.84543457 -45.68725586 103.69750977 C-47.0165507 105.95789704 -47.0165507 105.95789704 -48.04907227 108.23803711 C-49 110 -49 110 -51 111 C-52.7404417 111.08449628 -54.48409722 111.10723024 -56.2265625 111.09765625 C-57.7734375 111.09282227 -57.7734375 111.09282227 -59.3515625 111.08789062 C-60.97191406 111.07532227 -60.97191406 111.07532227 -62.625 111.0625 C-64.25695312 111.05573242 -64.25695312 111.05573242 -65.921875 111.04882812 C-68.61463789 111.03701776 -71.30729188 111.02054778 -74 111 C-73.20001229 106.31857195 -71.37885818 102.75020199 -69 98.6875 C-68.18603008 97.26962759 -67.37223327 95.85165578 -66.55859375 94.43359375 C-66.13819824 93.70640137 -65.71780273 92.97920898 -65.28466797 92.22998047 C-63.18461559 88.5846216 -61.12426382 84.91710341 -59.0625 81.25 C-58.68544922 80.58315186 -58.30839844 79.91630371 -57.91992188 79.22924805 C-56.20423121 76.18733475 -54.51752527 73.14628276 -53 70 C-52.34 70 -51.68 70 -51 70 C-50.8868042 69.44006348 -50.7736084 68.88012695 -50.65698242 68.30322266 C-49.90687083 65.67351149 -48.80383834 63.54602357 -47.48828125 61.1484375 C-46.97716797 60.21386719 -46.46605469 59.27929688 -45.93945312 58.31640625 C-45.40255859 57.34574219 -44.86566406 56.37507813 -44.3125 55.375 C-43.79494141 54.42753906 -43.27738281 53.48007813 -42.74414062 52.50390625 C-39.70239415 46.96588216 -36.54407088 41.5322827 -33.18823242 36.17822266 C-32.05234921 34.09596458 -31.44995953 32.31737397 -31 30 C-31.515625 29.9175 -32.03125 29.835 -32.5625 29.75 C-36.04455732 28.67859775 -38.87200885 26.86476395 -42 25 C-40.56866582 21.38722068 -39.13342574 20.21471903 -35.6875 18.5 C-29.74324428 15.42101801 -23.93159 12.14396173 -18.125 8.8125 C-17.20936279 8.28914063 -16.29372559 7.76578125 -15.3503418 7.2265625 C-10.32255421 4.36122755 -10.32255421 4.36122755 -5.39404297 1.33081055 C-3 0 -3 0 0 0 Z " fill="#7EBB92" transform="translate(353,90)"/>
<path d="M0 0 C6.41673949 5.4000026 10.60957902 11.02800211 11.55859375 19.4921875 C11.58230489 20.8279152 11.58309005 22.16422055 11.5625 23.5 C11.55347656 24.20253906 11.54445313 24.90507812 11.53515625 25.62890625 C11.21725839 35.18350312 7.93080511 40.43823968 1.125 46.8984375 C0.465 47.46820313 -0.195 48.03796875 -0.875 48.625 C-1.473125 49.15351563 -2.07125 49.68203125 -2.6875 50.2265625 C-10.12487878 54.98117251 -20.69036017 54.80814849 -29.12109375 53.1953125 C-36.96522025 50.26055848 -43.47155355 42.65935654 -47.625 35.6875 C-50.90078534 27.38039795 -49.6289069 17.15778369 -46.26953125 9.09765625 C-42.19237434 1.86841164 -35.44931296 -3.56711472 -27.5625 -6.125 C-17.26101938 -7.08327727 -8.50100069 -6.38618546 0 0 Z " fill="#EDF0F6" transform="translate(268.875,254.375)"/>
<path d="M0 0 C1.16094177 -0.00845947 2.32188354 -0.01691895 3.51800537 -0.02563477 C5.4303598 -0.01652573 5.4303598 -0.01652573 7.38134766 -0.00723267 C8.73651554 -0.01129741 10.09168011 -0.01663875 11.44683838 -0.02316284 C15.12864538 -0.03685399 18.81020055 -0.03153052 22.49201202 -0.02202559 C26.34233791 -0.01443824 30.19264203 -0.02147202 34.04296875 -0.02618408 C40.50931679 -0.03164435 46.97556209 -0.02444297 53.44189453 -0.01016235 C60.92132742 0.00616474 68.400515 0.00087642 75.87994194 -0.01564157 C82.29785197 -0.02924877 88.71568808 -0.03117987 95.13360786 -0.02332556 C98.96840563 -0.0186448 102.80308803 -0.01803517 106.63787842 -0.02793503 C110.24289197 -0.03659136 113.84758878 -0.03060759 117.45256805 -0.01325226 C119.40931257 -0.00738312 121.36608382 -0.01631435 123.32281494 -0.02563477 C124.48375671 -0.01717529 125.64469849 -0.00871582 126.84082031 0 C128.35731674 0.00169662 128.35731674 0.00169662 129.90444946 0.00342751 C132.42041016 0.38095093 132.42041016 0.38095093 134.24862671 1.7541256 C135.88979463 4.03261277 135.75220419 5.66654348 135.67041016 8.44345093 C135.65494141 9.32130249 135.63947266 10.19915405 135.62353516 11.10360718 C135.42041016 13.38095093 135.42041016 13.38095093 134.42041016 15.38095093 C128.00069362 16.80394702 121.42351225 16.52874591 114.87915039 16.5262146 C113.62955536 16.52957321 112.37996033 16.53293182 111.09249878 16.53639221 C107.68144351 16.54424 104.27044913 16.54756825 100.85938907 16.548208 C98.72573065 16.54892077 96.59207855 16.55105931 94.45842171 16.55370522 C87.00800295 16.56294073 79.55760203 16.56704205 72.10717773 16.56625366 C65.17195207 16.56565225 58.23680403 16.57622111 51.30159801 16.59199733 C45.3362283 16.60508194 39.37088395 16.61043722 33.40549999 16.60979825 C29.8473414 16.60954368 26.28925196 16.6123726 22.73110771 16.6229763 C18.76479946 16.63447554 14.79859759 16.62990482 10.83227539 16.62387085 C9.07176094 16.63230011 9.07176094 16.63230011 7.27568054 16.64089966 C-3.00500808 16.60110277 -3.00500808 16.60110277 -7.57958984 14.38095093 C-8.74302211 12.0540864 -8.77854973 10.5337368 -8.82958984 7.94345093 C-8.86826172 6.76975952 -8.86826172 6.76975952 -8.90771484 5.57235718 C-8.13072342 0.38316444 -4.6537082 0.00520644 0 0 Z " fill="#3C3A4B" transform="translate(186.57958984375,207.61904907226563)"/>
<path d="M0 0 C1.4540625 0.0309375 1.4540625 0.0309375 2.9375 0.0625 C2.9375 0.3925 2.9375 0.7225 2.9375 1.0625 C1.2875 1.3925 -0.3625 1.7225 -2.0625 2.0625 C-2.3925 3.7125 -2.7225 5.3625 -3.0625 7.0625 C-1.90202148 7.0718457 -0.74154297 7.08119141 0.45410156 7.09082031 C4.76324731 7.13071876 9.07167899 7.19647684 13.38037109 7.27001953 C15.24453553 7.29823006 17.1088196 7.31944421 18.97314453 7.33349609 C21.65459441 7.35492484 24.33460586 7.40157298 27.015625 7.453125 C28.26427338 7.45496796 28.26427338 7.45496796 29.53814697 7.45684814 C33.26075875 7.5508957 35.33228381 7.64944288 38.46191406 9.78540039 C40.19503168 12.45991859 40.45242792 13.93519587 40.46875 17.10546875 C40.47712891 18.08837891 40.48550781 19.07128906 40.49414062 20.08398438 C40.47544922 21.12876953 40.45675781 22.17355469 40.4375 23.25 C40.41719727 24.86551758 40.41719727 24.86551758 40.39648438 26.51367188 C39.91639216 45.25959831 34.55466078 63.32159035 21.16796875 77.0078125 C16.15810038 81.62285762 11.67746462 85.37750884 4.9375 87.0625 C4.9375 86.7325 4.9375 86.4025 4.9375 86.0625 C3.865 85.98 2.7925 85.8975 1.6875 85.8125 C-2.39750175 84.99549965 -3.41141677 84.1063363 -6.0625 81.0625 C-6.7225 81.0625 -7.3825 81.0625 -8.0625 81.0625 C-8.7225 81.0625 -9.3825 81.0625 -10.0625 81.0625 C-11.05791875 77.74608498 -11.19146826 74.72831207 -11.1953125 71.2734375 C-11.19660156 70.16742188 -11.19789063 69.06140625 -11.19921875 67.921875 C-11.19535156 66.77203125 -11.19148438 65.6221875 -11.1875 64.4375 C-11.19136719 63.27992188 -11.19523437 62.12234375 -11.19921875 60.9296875 C-11.19792969 59.82625 -11.19664062 58.7228125 -11.1953125 57.5859375 C-11.19418457 56.57450684 -11.19305664 55.56307617 -11.19189453 54.52099609 C-11.0625 52.0625 -11.0625 52.0625 -10.0625 50.0625 C-9.94381927 47.98136173 -9.88339912 45.89677639 -9.8515625 43.8125 C-9.82320313 42.5646875 -9.79484375 41.316875 -9.765625 40.03125 C-9.71354447 37.38555887 -9.66927248 34.73970249 -9.6328125 32.09375 C-9.601875 30.8459375 -9.5709375 29.598125 -9.5390625 28.3125 C-9.51924316 27.16265625 -9.49942383 26.0128125 -9.47900391 24.828125 C-9.34155762 23.91546875 -9.20411133 23.0028125 -9.0625 22.0625 C-6.0625 20.0625 -6.0625 20.0625 -3.0625 20.0625 C-3.083125 18.763125 -3.10375 17.46375 -3.125 16.125 C-3.14649454 14.77084367 -3.13398199 13.41493917 -3.0625 12.0625 C-2.0625 11.0625 -2.0625 11.0625 1.31640625 10.96484375 C2.71097077 10.97151631 4.10551743 10.98347468 5.5 11 C6.21091797 11.00451172 6.92183594 11.00902344 7.65429688 11.01367188 C9.41540013 11.02549136 11.17646036 11.04342737 12.9375 11.0625 C11.79410156 11.00191406 10.65070313 10.94132813 9.47265625 10.87890625 C7.98175695 10.79451572 6.49087225 10.70986698 5 10.625 C4.24525391 10.58568359 3.49050781 10.54636719 2.71289062 10.50585938 C-2.94921875 10.17578125 -2.94921875 10.17578125 -4.0625 9.0625 C-4.1953125 7.25 -4.1953125 7.25 -4.1875 5.0625 C-4.19007813 4.340625 -4.19265625 3.61875 -4.1953125 2.875 C-3.96314697 -0.29337667 -3.23031119 0.06592472 0 0 Z M-5.0625 23.0625 C-5.43834895 25.86084716 -5.75622581 28.64461223 -6.03515625 31.453125 C-6.12252548 32.30872009 -6.20989471 33.16431519 -6.2999115 34.0458374 C-6.48452243 35.86822002 -6.66678644 37.69084163 -6.84692383 39.51367188 C-7.11978316 42.25999268 -7.40408935 45.00495417 -7.68945312 47.75 C-8.65044528 57.22592 -9.36966485 66.52827911 -9.0625 76.0625 C-0.36679828 74.23182595 6.79049795 70.60186388 12.9375 64.0625 C12.9375 63.4025 12.9375 62.7425 12.9375 62.0625 C13.5975 62.0625 14.2575 62.0625 14.9375 62.0625 C21.71932878 50.00385102 26.5762139 37.24367794 24.9375 23.0625 C23.10715945 21.23215945 20.20538008 21.93207203 17.75 21.9296875 C16.49445313 21.92839844 15.23890625 21.92710937 13.9453125 21.92578125 C12.95966309 21.92892334 12.95966309 21.92892334 11.95410156 21.93212891 C9.94588665 21.93747766 7.93789541 21.93218309 5.9296875 21.92578125 C4.67414063 21.92707031 3.41859375 21.92835938 2.125 21.9296875 C0.96355469 21.93081543 -0.19789063 21.93194336 -1.39453125 21.93310547 C-3.98313284 21.75912526 -3.98313284 21.75912526 -5.0625 23.0625 Z " fill="#85BB1C" transform="translate(317.0625,222.9375)"/>
<path d="M0 0 C0.28867075 4.24983235 0.57333607 8.4999096 0.85449219 12.75024414 C0.9504302 14.19237282 1.04741146 15.63443254 1.14550781 17.07641602 C1.66509055 24.72435583 2.13713378 32.32907932 2 40 C1.01 40.495 1.01 40.495 0 41 C-2.1640625 40.00390625 -2.1640625 40.00390625 -4.625 38.5625 C-5.44226563 38.08941406 -6.25953125 37.61632812 -7.1015625 37.12890625 C-7.72804688 36.75636719 -8.35453125 36.38382813 -9 36 C-12.87268915 41.5618408 -16.2930414 47.23526368 -19.48046875 53.21484375 C-21.46640201 56.85487051 -23.62001428 60.38039055 -25.80078125 63.90625 C-27.13477837 66.07583419 -27.13477837 66.07583419 -28 69 C-28.66 69 -29.32 69 -30 69 C-30.12375 69.598125 -30.2475 70.19625 -30.375 70.8125 C-31 73 -31 73 -33 76 C-35.06298828 76.34057617 -35.06298828 76.34057617 -37.5703125 76.29296875 C-38.46621094 76.28330078 -39.36210937 76.27363281 -40.28515625 76.26367188 C-41.22230469 76.23853516 -42.15945312 76.21339844 -43.125 76.1875 C-44.54232422 76.16719727 -44.54232422 76.16719727 -45.98828125 76.14648438 C-48.32608779 76.11106306 -50.66276237 76.06167271 -53 76 C-52.57415932 69.90948799 -49.73259433 65.55920522 -46.6875 60.4375 C-46.16003174 59.52943604 -45.63256348 58.62137207 -45.08911133 57.68579102 C-42.82570543 53.79099307 -40.53953735 49.91001966 -38.2421875 46.03515625 C-37.09593076 44.09988422 -35.95427618 42.16187768 -34.81762695 40.22094727 C-33.74649911 38.39199286 -32.66459072 36.56930158 -31.57104492 34.75366211 C-31.08740479 33.92616455 -30.60376465 33.09866699 -30.10546875 32.24609375 C-29.67387451 31.52091553 -29.24228027 30.7957373 -28.79760742 30.04858398 C-27.83116404 27.56635981 -28.01190072 26.44360505 -29 24 C-30.60808341 22.66847803 -30.60808341 22.66847803 -32.5625 21.75 C-33.696875 21.1725 -34.83125 20.595 -36 20 C-34.78105119 16.34315357 -33.88990216 16.05683672 -30.625 14.1875 C-29.71878906 13.66542969 -28.81257813 13.14335937 -27.87890625 12.60546875 C-24.20363866 10.55589618 -20.52498127 8.51615283 -16.81640625 6.52734375 C-14.85173052 5.46189547 -12.90211859 4.36840027 -10.96484375 3.25390625 C-9.98644531 2.69574219 -9.00804687 2.13757813 -8 1.5625 C-7.113125 1.04816406 -6.22625 0.53382812 -5.3125 0.00390625 C-3 -1 -3 -1 0 0 Z " fill="#82BD95" transform="translate(288,125)"/>
<path d="M0 0 C1.14662109 -0.02139038 1.14662109 -0.02139038 2.31640625 -0.04321289 C7.58030446 0.00297166 11.1724814 1.00359527 15.875 3.375 C16.94041016 3.90480469 16.94041016 3.90480469 18.02734375 4.4453125 C25.84870544 9.06624829 32.22122969 15.77425549 35.25 24.44140625 C37.31935141 34.15442444 37.11673432 44.72613838 31.875 53.375 C25.33834438 62.831719 25.33834438 62.831719 19.875 65.375 C19.545 66.035 19.215 66.695 18.875 67.375 C16.87890625 68.19140625 16.87890625 68.19140625 14.4375 68.9375 C11.08347148 69.97417007 11.08347148 69.97417007 7.875 71.375 C-9.24812087 72.39376692 -9.24812087 72.39376692 -16.125 68.375 C-17.31996094 67.73111328 -17.31996094 67.73111328 -18.5390625 67.07421875 C-27.51836758 61.60796506 -33.4308925 52.50431595 -36.125 42.375 C-37.10842566 30.71851347 -35.64662508 21.54052665 -28.125 12.375 C-19.34178101 2.96547338 -12.57578896 0.19427461 0 0 Z M-23.9375 16.125 C-29.83168221 23.36488591 -30.7690342 30.73717613 -30.53125 39.94140625 C-29.43747735 49.18588858 -24.04792197 55.52147248 -17.125 61.375 C-9.4799971 66.76125204 0.30439379 66.34408455 9.28515625 65.01953125 C16.45083168 62.82715827 21.71848445 56.53151555 26.875 51.375 C31.07544752 43.29721631 31.47837779 33.09816795 29.03125 24.36328125 C25.04359019 15.56618038 17.72161604 9.88280854 8.875 6.375 C-3.42779433 2.48990705 -15.37181749 7.05332781 -23.9375 16.125 Z " fill="#292E2A" transform="translate(250.125,242.625)"/>
<path d="M0 0 C0.75770785 4.11481205 1.17155355 8.09340234 1.31640625 12.2734375 C1.35830078 13.42714844 1.40019531 14.58085937 1.44335938 15.76953125 C1.48267578 16.95933594 1.52199219 18.14914063 1.5625 19.375 C1.60568359 20.58800781 1.64886719 21.80101562 1.69335938 23.05078125 C1.79905513 26.03375032 1.90115321 29.01679742 2 32 C-1.33822957 31.38550003 -4.02209492 30.65439171 -7 29 C-10.76363487 35.41011012 -14.50159174 41.8257729 -18.0546875 48.35546875 C-19 50 -19 50 -20 51 C-22.53049402 51.07313567 -25.03304837 51.09247527 -27.5625 51.0625 C-28.62887695 51.05573242 -28.62887695 51.05573242 -29.71679688 51.04882812 C-31.47790013 51.03700864 -33.23896036 51.01907263 -35 51 C-36 48 -36 48 -34.375 44.62890625 C-33.59375299 43.26740533 -32.80137553 41.91225143 -32 40.5625 C-31.59080322 39.85544922 -31.18160645 39.14839844 -30.76000977 38.41992188 C-29.51582441 36.27445783 -28.25849404 34.1370936 -27 32 C-26.27889568 30.75972577 -25.55877053 29.51888147 -24.83984375 28.27734375 C-23.23526596 25.512989 -21.62217749 22.75405052 -20 20 C-21.175625 19.5359375 -21.175625 19.5359375 -22.375 19.0625 C-25 18 -25 18 -27 17 C-27 16.01 -27 15.02 -27 14 C-24.84448242 12.37426758 -24.84448242 12.37426758 -21.85546875 10.64453125 C-20.25155273 9.71157227 -20.25155273 9.71157227 -18.61523438 8.75976562 C-17.48408203 8.11716797 -16.35292969 7.47457031 -15.1875 6.8125 C-14.06794922 6.15830078 -12.94839844 5.50410156 -11.79492188 4.83007812 C-3.40901981 0 -3.40901981 0 0 0 Z " fill="#84BE97" transform="translate(232,150)"/>
<path d="M0 0 C30.36 0 60.72 0 92 0 C92 3.63 92 7.26 92 11 C61.65422336 11.16822819 31.33760409 10.68815994 1 10 C0.67 6.7 0.34 3.4 0 0 Z " fill="#292A34" transform="translate(204,331)"/>
<path d="M0 0 C41.58 0 83.16 0 126 0 C126 1.98 126 3.96 126 6 C124.34764013 7.65235987 122.41023924 7.1422706 120.13426208 7.15821838 C119.08111816 7.1680072 118.02797424 7.17779602 116.94291687 7.18788147 C115.19504631 7.19651466 115.19504631 7.19651466 113.41186523 7.20532227 C111.58285172 7.22017166 111.58285172 7.22017166 109.71688843 7.23532104 C106.36375394 7.26157179 103.01064407 7.2834077 99.65746951 7.30332303 C96.15671611 7.32514477 92.65600667 7.35255205 89.1552887 7.37937927 C82.52193534 7.42935787 75.88855765 7.47427745 69.25515658 7.51740164 C61.70506671 7.56672995 54.15502093 7.62166437 46.60497367 7.67708123 C31.07002317 7.79098056 15.53503216 7.89780219 0 8 C0 5.36 0 2.72 0 0 Z " fill="#70933F" transform="translate(187,224)"/>
<path d="M0 0 C1.14662109 -0.02139038 1.14662109 -0.02139038 2.31640625 -0.04321289 C7.58030446 0.00297166 11.1724814 1.00359527 15.875 3.375 C16.94041016 3.90480469 16.94041016 3.90480469 18.02734375 4.4453125 C25.86610143 9.07652601 32.14414251 15.76350406 35.265625 24.40234375 C36.54582669 30.6474302 36.15807616 37.03723927 35.875 43.375 C34.885 43.375 33.895 43.375 32.875 43.375 C32.38 40.405 32.38 40.405 31.875 37.375 C31.545 37.375 31.215 37.375 30.875 37.375 C30.875 35.395 30.875 33.415 30.875 31.375 C31.535 31.375 32.195 31.375 32.875 31.375 C32.875 30.055 32.875 28.735 32.875 27.375 C31.95654297 27.25705078 31.95654297 27.25705078 31.01953125 27.13671875 C28.875 26.375 28.875 26.375 27.63671875 24.51953125 C27.10498047 23.36517578 27.10498047 23.36517578 26.5625 22.1875 C22.30325097 14.00662534 15.19573235 9.37102074 6.5 6.625 C-4.03491186 5.62167506 -11.46172201 7.15000068 -20.125 13.375 C-20.61613281 13.92285156 -21.10726562 14.47070312 -21.61328125 15.03515625 C-23.125 16.375 -23.125 16.375 -27.125 16.375 C-28.55000059 20.36500166 -29.52575776 24.18030429 -30.125 28.375 C-30.785 28.375 -31.445 28.375 -32.125 28.375 C-33.20347149 23.72927666 -33.74325412 20.66157272 -31.3125 16.4375 C-26.58411354 9.80990014 -20.02963646 2.86802251 -11.9453125 0.73828125 C-7.9620205 0.22519793 -4.01389139 0.06200781 0 0 Z " fill="#27331F" transform="translate(250.125,242.625)"/>
<path d="M0 0 C0.33 0.66 0.66 1.32 1 2 C2.77074917 2.02705729 4.54161711 2.04642195 6.3125 2.0625 C7.29863281 2.07410156 8.28476563 2.08570313 9.30078125 2.09765625 C12.09963849 2.12329862 12.09963849 2.12329862 15 1 C17.34533431 0.92775807 19.69271273 0.91617762 22.0390625 0.9375 C23.06125381 0.94317993 23.06125381 0.94317993 24.10409546 0.94897461 C26.27779479 0.96118133 28.45136093 0.97982033 30.625 1 C33.49218368 1.0264896 36.3593032 1.04652286 39.2265625 1.0625 C41.13816162 1.07990234 41.13816162 1.07990234 43.08837891 1.09765625 C45.89223901 1.33542974 45.89223901 1.33542974 47 0 C48.55295047 -0.00449262 50.10623282 0.0607404 51.65625 0.15625 C52.59597656 0.20910156 53.53570312 0.26195312 54.50390625 0.31640625 C57.5 0.5 57.5 0.5 60.49609375 0.68359375 C61.43582031 0.73644531 62.37554687 0.78929687 63.34375 0.84375 C64.21193359 0.89724609 65.08011719 0.95074219 65.97460938 1.00585938 C67.9970057 1.2380137 67.9970057 1.2380137 69 0 C70.66617115 -0.04063832 72.33388095 -0.042721 74 0 C74 0.66 74 1.32 74 2 C76.73249341 2.75277515 79.28100683 3.16641703 82.109375 3.31640625 C83.24052734 3.37924805 83.24052734 3.37924805 84.39453125 3.44335938 C85.56048828 3.50233398 85.56048828 3.50233398 86.75 3.5625 C87.93916016 3.62727539 87.93916016 3.62727539 89.15234375 3.69335938 C91.10137815 3.79902991 93.05066748 3.89997966 95 4 C95 4.33 95 4.66 95 5 C54.41 5 13.82 5 -28 5 C-27.34 4.01 -26.68 3.02 -26 2 C-23.43366125 1.63423677 -21.07609329 1.44286925 -18.5 1.375 C-17.05201965 1.31266002 -15.60410151 1.24885774 -14.15625 1.18359375 C-13.09470703 1.14081299 -13.09470703 1.14081299 -12.01171875 1.09716797 C-7.9925303 0.90303726 -3.99704634 0.45158937 0 0 Z " fill="#69922B" transform="translate(217,226)"/>
<path d="M0 0 C2.64 0.66 5.28 1.32 8 2 C8.12117187 2.68707031 8.24234375 3.37414062 8.3671875 4.08203125 C8.53476563 4.98308594 8.70234375 5.88414062 8.875 6.8125 C9.11863281 8.15248047 9.11863281 8.15248047 9.3671875 9.51953125 C9.91188449 12.22727846 9.91188449 12.22727846 12 15 C12.30970764 16.86585999 12.30970764 16.86585999 12.39477539 18.98071289 C12.44976952 20.17193504 12.44976952 20.17193504 12.50587463 21.38722229 C12.53616257 22.2404155 12.5664505 23.0936087 12.59765625 23.97265625 C12.63684677 24.85150986 12.67603729 25.73036346 12.71641541 26.635849 C12.84052754 29.44443765 12.95228485 32.25333434 13.0625 35.0625 C13.1779229 37.8751234 13.2960057 40.68757291 13.41929626 43.49986267 C13.49552943 45.25027362 13.56692169 47.00090325 13.6330719 48.75172424 C13.70437696 53.01198198 13.70437696 53.01198198 15 57 C15.10600796 58.50783091 15.15537656 60.01983497 15.17578125 61.53125 C15.52449251 76.95349908 17.33986522 91.81190596 20 107 C21.2065625 107.185625 21.2065625 107.185625 22.4375 107.375 C23.7059375 107.684375 23.7059375 107.684375 25 108 C26 110 26 110 26 119 C42.83 119 59.66 119 77 119 C76.67 119.66 76.34 120.32 76 121 C69.21900224 121.02532087 62.43801663 121.04285457 55.65698242 121.05493164 C53.3493606 121.05996551 51.04174197 121.06679305 48.73413086 121.07543945 C45.42040214 121.08754635 42.10671552 121.09323773 38.79296875 121.09765625 C37.7585112 121.10281754 36.72405365 121.10797882 35.6582489 121.11329651 C34.6974794 121.11337204 33.7367099 121.11344757 32.74682617 121.11352539 C31.90077316 121.115746 31.05472015 121.11796661 30.18302917 121.12025452 C28 121 28 121 25 120 C23.39274365 116.78548731 23.94251815 113.56387464 24 110 C23.05125 109.731875 22.1025 109.46375 21.125 109.1875 C18 108 18 108 16 105 C15.58548813 102.22467732 15.27342121 99.51366884 15.03515625 96.72265625 C14.95726868 95.89219788 14.8793811 95.0617395 14.7991333 94.20611572 C14.54601092 91.49221781 14.30434268 88.77742415 14.0625 86.0625 C13.80326212 83.25506499 13.54101035 80.44792245 13.27848816 77.64079285 C13.10308308 75.76393714 12.92861578 73.88699356 12.75508118 72.00996399 C11.92180143 63.03077487 10.96104707 54.0687389 9.95141602 45.10766602 C9.21510037 38.45105359 8.68054113 31.80291704 8.27026367 25.11791992 C8.02904313 22.33505852 7.56201931 19.73054922 7 17 C6.93298494 14.56333235 6.91471979 12.12498258 6.9375 9.6875 C6.94652344 8.43324219 6.95554688 7.17898437 6.96484375 5.88671875 C6.97644531 4.93410156 6.98804688 3.98148438 7 3 C4.69 2.67 2.38 2.34 0 2 C0 1.34 0 0.68 0 0 Z " fill="#9BA883" transform="translate(179,222)"/>
<path d="M0 0 C0.99 0.33 1.98 0.66 3 1 C3.33 1.99 3.66 2.98 4 4 C6.44504487 5.22252243 8.02591677 5.12690591 10.7590332 5.12939453 C11.75220047 5.13254669 12.74536774 5.13569885 13.76863098 5.13894653 C14.85174057 5.1369223 15.93485016 5.13489807 17.05078125 5.1328125 C18.73641426 5.13424759 18.73641426 5.13424759 20.45610046 5.13571167 C22.85118668 5.13639417 25.24627473 5.13453506 27.64135742 5.13037109 C31.2316531 5.12511828 34.82181812 5.13026362 38.41210938 5.13671875 C50.18972493 5.13896625 61.92162292 5.01174264 73.67854309 4.26150513 C77.1060753 4.05540015 79.70896529 3.90298843 83 5 C84.54897725 5.11425138 86.10211766 5.17617915 87.6550293 5.20532227 C89.06615242 5.2352401 89.06615242 5.2352401 90.50578308 5.26576233 C91.51836685 5.28247482 92.53095062 5.29918732 93.57421875 5.31640625 C94.61318802 5.33718735 95.65215729 5.35796844 96.72261047 5.37937927 C100.04417253 5.44480656 103.36581416 5.50372821 106.6875 5.5625 C108.9381593 5.60569169 111.18881052 5.64930619 113.43945312 5.69335938 C118.9595511 5.80048098 124.47972837 5.90226016 130 6 C130 6.66 130 7.32 130 8 C113.80565792 8.04674546 97.61133777 8.08200132 81.4169445 8.10362434 C73.89740619 8.11393168 66.37790982 8.12798163 58.85839844 8.15087891 C52.30348212 8.17082941 45.7485962 8.18372039 39.19365036 8.18817699 C35.72368554 8.19078156 32.25380763 8.1968921 28.7838707 8.21146011 C24.90781794 8.22760076 21.03184981 8.22797861 17.15576172 8.22705078 C16.00849106 8.23424133 14.8612204 8.24143188 13.67918396 8.24884033 C8.40062327 8.23514952 3.92375204 8.1666548 -1 6 C-1.042721 4.33388095 -1.04063832 2.66617115 -1 1 C-0.67 0.67 -0.34 0.34 0 0 Z " fill="#2C3229" transform="translate(180,216)"/>
<path d="M0 0 C1.4540625 0.0309375 1.4540625 0.0309375 2.9375 0.0625 C2.9375 0.3925 2.9375 0.7225 2.9375 1.0625 C1.2875 1.3925 -0.3625 1.7225 -2.0625 2.0625 C-2.3925 3.7125 -2.7225 5.3625 -3.0625 7.0625 C-1.90202148 7.0718457 -0.74154297 7.08119141 0.45410156 7.09082031 C4.76324731 7.13071876 9.07167899 7.19647684 13.38037109 7.27001953 C15.24453553 7.29823006 17.1088196 7.31944421 18.97314453 7.33349609 C21.65459441 7.35492484 24.33460586 7.40157298 27.015625 7.453125 C28.26427338 7.45496796 28.26427338 7.45496796 29.53814697 7.45684814 C33.26075875 7.5508957 35.33228381 7.64944288 38.46191406 9.78540039 C40.19503168 12.45991859 40.45242792 13.93519587 40.46875 17.10546875 C40.47712891 18.08837891 40.48550781 19.07128906 40.49414062 20.08398438 C40.47544922 21.12876953 40.45675781 22.17355469 40.4375 23.25 C40.41719727 24.86551758 40.41719727 24.86551758 40.39648438 26.51367188 C39.99316115 42.262037 36.06920534 55.54485995 27.9375 69.0625 C26.9475 69.5575 26.9475 69.5575 25.9375 70.0625 C25.9375 68.4125 25.9375 66.7625 25.9375 65.0625 C26.5975 65.0625 27.2575 65.0625 27.9375 65.0625 C28.123125 63.1134375 28.123125 63.1134375 28.3125 61.125 C28.5234375 58.91015625 28.5234375 58.91015625 28.9375 57.0625 C29.5975 56.7325 30.2575 56.4025 30.9375 56.0625 C33.40616911 51.91187432 33.86746539 47.58203748 34.5625 42.875 C34.69366211 41.99457031 34.82482422 41.11414063 34.95996094 40.20703125 C36.25619543 30.8337408 37.45778546 20.30523024 34.9375 11.0625 C33.791604 11.03744385 32.64570801 11.0123877 31.46508789 10.98657227 C27.22896402 10.89266894 22.99301072 10.79240725 18.75708008 10.69018555 C16.92085753 10.6467718 15.08459292 10.60510161 13.24829102 10.56518555 C10.61461689 10.50763831 7.98115579 10.44390002 5.34765625 10.37890625 C4.10859276 10.35383751 4.10859276 10.35383751 2.84449768 10.32826233 C-2.94862829 10.17637171 -2.94862829 10.17637171 -4.0625 9.0625 C-4.1953125 7.25 -4.1953125 7.25 -4.1875 5.0625 C-4.19007813 4.340625 -4.19265625 3.61875 -4.1953125 2.875 C-3.96314697 -0.29337667 -3.23031119 0.06592472 0 0 Z " fill="#91B840" transform="translate(317.0625,222.9375)"/>
<path d="M0 0 C1.28519531 0.00193359 2.57039063 0.00386719 3.89453125 0.00585938 C4.89734131 0.01516479 4.89734131 0.01516479 5.92041016 0.0246582 C7.96139017 0.04290296 10.00191572 0.04516784 12.04296875 0.04492188 C22.04757801 0.09007809 22.04757801 0.09007809 25.46875 1.23046875 C25.74721201 4.06351703 25.99194597 6.89319484 26.21875 9.73046875 C26.29996094 10.52195313 26.38117188 11.3134375 26.46484375 12.12890625 C26.92249603 18.33263718 25.63353325 21.8822304 22.46875 27.23046875 C21.3070617 23.0832143 21.95905235 20.38833619 22.99609375 16.25390625 C23.66704582 11.962031 23.46875 7.57447264 23.46875 3.23046875 C14.22875 3.23046875 4.98875 3.23046875 -4.53125 3.23046875 C-5.10663095 8.7068624 -5.67812127 14.18339792 -6.24023438 19.66113281 C-6.43205066 21.51943352 -6.62601058 23.37751439 -6.82226562 25.23535156 C-7.87871868 35.25009531 -8.90546602 45.14222851 -8.53125 55.23046875 C-0.74831676 53.40235638 4.46116433 50.52701168 10.46875 45.23046875 C10.46875 46.22046875 10.46875 47.21046875 10.46875 48.23046875 C3.94000541 54.23744892 -2.66888167 57.23046875 -11.53125 57.23046875 C-11.56017385 53.10548337 -11.57802267 48.9805239 -11.59375 44.85546875 C-11.60212891 43.67984375 -11.61050781 42.50421875 -11.61914062 41.29296875 C-11.62236328 40.17148437 -11.62558594 39.05 -11.62890625 37.89453125 C-11.63414307 36.8576416 -11.63937988 35.82075195 -11.64477539 34.75244141 C-11.53125 32.23046875 -11.53125 32.23046875 -10.53125 30.23046875 C-10.41256927 28.14933048 -10.35214912 26.06474514 -10.3203125 23.98046875 C-10.29195313 22.73265625 -10.26359375 21.48484375 -10.234375 20.19921875 C-10.18229447 17.55352762 -10.13802248 14.90767124 -10.1015625 12.26171875 C-10.070625 11.01390625 -10.0396875 9.76609375 -10.0078125 8.48046875 C-9.98799316 7.330625 -9.96817383 6.18078125 -9.94775391 4.99609375 C-9.81030762 4.0834375 -9.67286133 3.17078125 -9.53125 2.23046875 C-5.92749792 -0.17203264 -4.2808223 -0.01490456 0 0 Z " fill="#A9C86B" transform="translate(317.53125,242.76953125)"/>
<path d="M0 0 C0.66 0 1.32 0 2 0 C0.09424917 3.99563218 -2.27393667 7.64491833 -4.66015625 11.3671875 C-8.21176607 18.34615256 -8.14400832 28.21032662 -6.3515625 35.71484375 C-5.40462789 38.27642327 -4.30462613 40.60104569 -3 43 C-2.53722656 43.8559375 -2.07445312 44.711875 -1.59765625 45.59375 C3.02532284 53.09902656 9.57188171 57.70520203 17.87109375 60.66796875 C21.19814942 61.18686734 24.51622942 61.22534847 27.875 61.25 C28.56980469 61.270625 29.26460937 61.29125 29.98046875 61.3125 C34.79588106 61.34877429 37.83820809 60.33036009 42 58 C44.875 57.8125 44.875 57.8125 47 58 C47.33 57.01 47.66 56.02 48 55 C48.77085937 54.53980469 49.54171875 54.07960938 50.3359375 53.60546875 C57.13868467 49.50586599 60.69295076 41.32827405 63 34 C63.33 34 63.66 34 64 34 C64.08131463 35.43655854 64.13933559 36.8744483 64.1875 38.3125 C64.23970703 39.51326172 64.23970703 39.51326172 64.29296875 40.73828125 C64 43 64 43 62.61328125 44.79296875 C61 46 61 46 59 46 C58.62875 47.051875 58.62875 47.051875 58.25 48.125 C54.78277997 56.09960608 54.78277997 56.09960608 51.06640625 57.9765625 C49.69176007 58.47597524 48.3034386 58.93985332 46.90234375 59.359375 C44.70886415 60.00620614 44.70886415 60.00620614 42 62 C41.67 62.99 41.34 63.98 41 65 C11.44540172 62.90773879 11.44540172 62.90773879 6 60 C4.70703125 57.39453125 4.70703125 57.39453125 4 55 C3.34 55 2.68 55 2 55 C1.67 54.34 1.34 53.68 1 53 C0.01 52.67 -0.98 52.34 -2 52 C-2.6875 49.9375 -2.6875 49.9375 -3 48 C-3.99 48.495 -3.99 48.495 -5 49 C-5.20496094 48.28972656 -5.40992188 47.57945312 -5.62109375 46.84765625 C-5.89050781 45.92855469 -6.15992188 45.00945312 -6.4375 44.0625 C-6.70433594 43.14597656 -6.97117188 42.22945313 -7.24609375 41.28515625 C-7.79026051 39.0597507 -7.79026051 39.0597507 -9 38 C-9.28268837 34.50837035 -9.23195007 31.00168717 -9.25 27.5 C-9.270625 26.530625 -9.29125 25.56125 -9.3125 24.5625 C-9.34695356 18.15413832 -8.45330671 12.92789947 -6 7 C-5.34 7 -4.68 7 -4 7 C-3.71125 6.401875 -3.4225 5.80375 -3.125 5.1875 C-2 3 -2 3 0 0 Z " fill="#84A642" transform="translate(222,252)"/>
<path d="M0 0 C1.65 0.33 3.3 0.66 5 1 C5 7.6 5 14.2 5 21 C9.95 21 14.9 21 20 21 C20 22.65 20 24.3 20 26 C16.68751813 26.02888146 13.37506833 26.04675799 10.0625 26.0625 C9.11697266 26.07087891 8.17144531 26.07925781 7.19726562 26.08789062 C5.84858398 26.09272461 5.84858398 26.09272461 4.47265625 26.09765625 C3.22367554 26.10551147 3.22367554 26.10551147 1.94946289 26.11352539 C0 26 0 26 -1 25 C-1.09946453 23.23140807 -1.13080217 21.45888549 -1.1328125 19.6875 C-1.13410156 18.61242187 -1.13539063 17.53734375 -1.13671875 16.4296875 C-1.13091797 14.73199219 -1.13091797 14.73199219 -1.125 13 C-1.12886719 11.86820312 -1.13273438 10.73640625 -1.13671875 9.5703125 C-1.13542969 8.49523437 -1.13414062 7.42015625 -1.1328125 6.3125 C-1.13168457 5.31863281 -1.13055664 4.32476562 -1.12939453 3.30078125 C-1 1 -1 1 0 0 Z " fill="#42414E" transform="translate(248,255)"/>
<path d="M0 0 C1.62278161 0.05529772 3.24776424 0.06311121 4.87109375 0.02734375 C5.77537109 0.01509766 6.67964844 0.00285156 7.61132812 -0.00976562 C9.49161489 -0.04485045 11.37183201 -0.08389692 13.25195312 -0.12695312 C18.26376782 -0.1875943 22.300041 -0.00081727 27 2 C26.34 2.99 25.68 3.98 25 5 C24.39414062 4.855625 23.78828125 4.71125 23.1640625 4.5625 C11.53988699 1.98729804 3.03621987 2.26320683 -7.16796875 8.68359375 C-9.05079538 9.93687711 -9.05079538 9.93687711 -10.48828125 11.66015625 C-12 13 -12 13 -16 13 C-17.42500059 16.99000166 -18.40075776 20.80530429 -19 25 C-19.66 25 -20.32 25 -21 25 C-22.07847149 20.35427666 -22.61825412 17.28657272 -20.1875 13.0625 C-15.35823668 6.18693866 -8.70339657 -1.83266966 0 0 Z " fill="#202A19" transform="translate(239,246)"/>
<path d="M0 0 C0.495 0.99 0.495 0.99 1 2 C-0.0621875 2.06058594 -1.124375 2.12117187 -2.21875 2.18359375 C-3.6458675 2.26765106 -5.07294869 2.35232636 -6.5 2.4375 C-7.23742432 2.48116699 -7.97484863 2.52483398 -8.73461914 2.56982422 C-12.33162432 2.79346809 -15.87438694 3.06393721 -19.4375 3.625 C-23 4 -23 4 -26.86938477 3.53173828 C-33.12322045 2.78654175 -39.36188958 2.85687381 -45.65234375 2.8671875 C-46.94765518 2.86623077 -48.24296661 2.86527405 -49.57752991 2.86428833 C-52.30650031 2.86282268 -55.03543776 2.86492885 -57.7644043 2.86962891 C-61.23493297 2.8753198 -64.70538417 2.87204399 -68.17591 2.86605644 C-71.52222718 2.8615407 -74.86852437 2.86471771 -78.21484375 2.8671875 C-79.44742416 2.86516327 -80.68000458 2.86313904 -81.94993591 2.86105347 C-93.1233644 2.78147841 -93.1233644 2.78147841 -104.11265564 4.55099487 C-106.67614325 5.16085659 -108.78059133 4.70856519 -111.375 4.3125 C-115.17848804 3.8949819 -117.48029807 3.74833592 -120.6875 5.9375 C-121.450625 6.618125 -122.21375 7.29875 -123 8 C-123.38133299 6.0085944 -123.71325582 4.00720923 -124 2 C-122.35859524 0.35859524 -120.47409198 0.85790299 -118.21018982 0.84178162 C-116.6557164 0.82709839 -116.6557164 0.82709839 -115.06983948 0.81211853 C-113.35002113 0.80348534 -113.35002113 0.80348534 -111.59545898 0.79467773 C-110.39562378 0.78477814 -109.19578857 0.77487854 -107.95959473 0.76467896 C-104.66017762 0.73842867 -101.36078552 0.71659258 -98.0613277 0.69667697 C-94.6166283 0.67485486 -91.17197358 0.64744777 -87.72731018 0.62062073 C-81.20020511 0.57064262 -74.67307532 0.52572286 -68.14592177 0.48259836 C-60.71674811 0.43326962 -53.28761927 0.37833537 -45.85848892 0.32291877 C-30.57236732 0.2090202 -15.28620457 0.1021984 0 0 Z " fill="#7DAD2C" transform="translate(312,230)"/>
<path d="M0 0 C1.093125 0.70125 2.18625 1.4025 3.3125 2.125 C4.02019531 2.45757812 4.72789062 2.79015625 5.45703125 3.1328125 C7.3125 4.125 7.3125 4.125 8.3125 6.125 C9.240625 6.2796875 9.240625 6.2796875 10.1875 6.4375 C13.24991472 7.42828123 13.80603798 9.38597814 15.3125 12.125 C15.9725 12.455 16.6325 12.785 17.3125 13.125 C17.3125 14.115 17.3125 15.105 17.3125 16.125 C18.3025 16.125 19.2925 16.125 20.3125 16.125 C22.91116874 25.35955499 22.49867696 34.629975 22.3125 44.125 C21.9825 44.125 21.6525 44.125 21.3125 44.125 C21.29832031 43.09761719 21.28414063 42.07023437 21.26953125 41.01171875 C20.9347537 29.18863462 18.69690363 19.81676571 10.34375 10.9140625 C0.36063338 2.12124055 -8.90966941 1.56274531 -21.58984375 1.98876953 C-28.92696792 2.46527271 -34.03530084 5.67539641 -39.6875 10.125 C-39.33383216 7.56090818 -38.93478611 6.36402357 -37.05078125 4.54296875 C-26.78179884 -1.6184207 -11.22504015 -5.50858452 0 0 Z " fill="#86AA40" transform="translate(264.6875,241.875)"/>
<path d="M0 0 C40.59 0 81.18 0 123 0 C123 0.33 123 0.66 123 1 C73.5 1.495 73.5 1.495 23 2 C22.67 2.66 22.34 3.32 22 4 C21.3709375 3.98839844 20.741875 3.97679687 20.09375 3.96484375 C14.63164835 3.90726135 9.37088828 3.94500409 4 5 C3.01 6.485 3.01 6.485 2 8 C1.34 8 0.68 8 0 8 C0 5.36 0 2.72 0 0 Z " fill="#698543" transform="translate(187,224)"/>
<path d="M0 0 C0.433125 0.495 0.86625 0.99 1.3125 1.5 C2.99740483 3.33218192 2.99740483 3.33218192 6 3 C6 3.66 6 4.32 6 5 C6.75748535 4.83322754 7.5149707 4.66645508 8.29541016 4.49462891 C13.31523356 3.82439283 18.21781149 3.97091113 23.2734375 4.0859375 C24.37848633 4.10685959 25.48353516 4.12778168 26.62207031 4.14933777 C30.206519 4.21889777 33.79073242 4.29670217 37.375 4.375 C39.82632893 4.42468002 42.27766361 4.47407714 44.72900391 4.52319336 C62.49016352 4.88754866 80.246825 5.35211952 98 6 C98 6.33 98 6.66 98 7 C86.1083307 7.0463578 74.21668293 7.08188678 62.32494164 7.10362434 C56.80302105 7.11405772 51.28116233 7.12820889 45.75927734 7.15087891 C40.42951474 7.17262302 35.09981162 7.18457199 29.77000809 7.18975449 C27.73746428 7.19344741 25.7049237 7.20065874 23.67240524 7.21146011 C20.82368709 7.22599575 17.97521416 7.22797706 15.12646484 7.22705078 C14.28776855 7.23424133 13.44907227 7.24143188 12.58496094 7.24884033 C7.99050899 7.23269455 4.32597848 6.75526714 0 5 C0 3.35 0 1.7 0 0 Z " fill="#7CA333" transform="translate(198,324)"/>
<path d="M0 0 C0.66 0 1.32 0 2 0 C1.39655166 4.08258878 0.05381582 7.1471303 -1.9375 10.75 C-2.46214844 11.71421875 -2.98679687 12.6784375 -3.52734375 13.671875 C-5 16 -5 16 -7 17 C-8.7404417 17.08449628 -10.48409722 17.10723024 -12.2265625 17.09765625 C-13.2578125 17.09443359 -14.2890625 17.09121094 -15.3515625 17.08789062 C-16.97191406 17.07532227 -16.97191406 17.07532227 -18.625 17.0625 C-20.25695312 17.05573242 -20.25695312 17.05573242 -21.921875 17.04882812 C-24.61463789 17.03701776 -27.30729188 17.02054778 -30 17 C-29.28398639 12.94457023 -28.13351931 10.19178613 -25.9375 6.6875 C-25.38964844 5.80449219 -24.84179688 4.92148438 -24.27734375 4.01171875 C-23.64505859 3.01591797 -23.64505859 3.01591797 -23 2 C-22.06576355 5.01031744 -21.95550089 5.86650268 -23 9 C-23.66 9 -24.32 9 -25 9 C-25.33 10.65 -25.66 12.3 -26 14 C-21.05 14.33 -16.1 14.66 -11 15 C-10.67 14.01 -10.34 13.02 -10 12 C-8.68 12 -7.36 12 -6 12 C-5.7525 11.319375 -5.505 10.63875 -5.25 9.9375 C-3.75802092 6.43134917 -1.93164489 3.28379632 0 0 Z " fill="#87B395" transform="translate(309,184)"/>
<path d="M0 0 C-5.36000789 2.25684543 -9.1977825 3.36263859 -15 3 C-15.03738281 3.89203125 -15.07476562 4.7840625 -15.11328125 5.703125 C-15.17902344 6.87359375 -15.24476563 8.0440625 -15.3125 9.25 C-15.39951172 10.99023438 -15.39951172 10.99023438 -15.48828125 12.765625 C-16.02230316 16.1409696 -16.60777329 17.60777329 -19 20 C-21.6875 20.75 -21.6875 20.75 -24 21 C-24 23.64 -24 26.28 -24 29 C-24.33 29 -24.66 29 -25 29 C-25 25.7 -25 22.4 -25 19 C-35.56 19 -46.12 19 -57 19 C-57 18.67 -57 18.34 -57 18 C-52.99842475 17.83111353 -48.99660428 17.67070312 -44.99438477 17.51782227 C-43.63557001 17.46475994 -42.27684045 17.40946331 -40.91821289 17.35180664 C-38.95483463 17.26888762 -36.99108498 17.19491861 -35.02734375 17.12109375 C-33.84906006 17.0739624 -32.67077637 17.02683105 -31.45678711 16.97827148 C-27.88292221 17.00073592 -24.52217815 17.41592021 -21 18 C-21.04125 17.2575 -21.0825 16.515 -21.125 15.75 C-20.99184228 12.82053009 -20.31856009 11.55955782 -19 9 C-18.61709538 7.00889599 -18.27395385 5.00899487 -18 3 C-17.24074219 2.79503906 -16.48148437 2.59007812 -15.69921875 2.37890625 C-14.20841797 1.97478516 -14.20841797 1.97478516 -12.6875 1.5625 C-11.20830078 1.16224609 -11.20830078 1.16224609 -9.69921875 0.75390625 C-3.31575829 -1.02902844 -3.31575829 -1.02902844 0 0 Z " fill="#A9C868" transform="translate(321,311)"/>
<path d="M0 0 C1.29349365 0.00523682 2.5869873 0.01047363 3.91967773 0.01586914 C4.9496714 0.01799156 4.9496714 0.01799156 6.00047302 0.02015686 C8.20144949 0.0257706 10.40232557 0.03832532 12.60327148 0.05102539 C14.09220231 0.05603863 15.58113473 0.06060184 17.07006836 0.06469727 C20.72700223 0.07574446 24.38387707 0.09301826 28.04077148 0.11352539 C28.31923349 2.94657367 28.56396746 5.77625148 28.79077148 8.61352539 C28.87198242 9.40500977 28.95319336 10.19649414 29.03686523 11.01196289 C29.49451752 17.21569382 28.20555473 20.76528704 25.04077148 26.11352539 C23.87908318 21.96627094 24.53107384 19.27139283 25.56811523 15.13696289 C26.23906731 10.84508765 26.04077148 6.45752928 26.04077148 2.11352539 C16.80077148 2.11352539 7.56077148 2.11352539 -1.95922852 2.11352539 C-2.94922852 12.67352539 -3.93922852 23.23352539 -4.95922852 34.11352539 C-5.28922852 34.11352539 -5.61922852 34.11352539 -5.95922852 34.11352539 C-6.39161065 8.97881944 -6.39161065 8.97881944 -3.95922852 1.11352539 C-2.95922852 0.11352539 -2.95922852 0.11352539 0 0 Z " fill="#C6DC99" transform="translate(314.959228515625,243.886474609375)"/>
<path d="M0 0 C1.4540625 0.0309375 1.4540625 0.0309375 2.9375 0.0625 C2.9375 0.3925 2.9375 0.7225 2.9375 1.0625 C1.2875 1.3925 -0.3625 1.7225 -2.0625 2.0625 C-2.3925 3.7125 -2.7225 5.3625 -3.0625 7.0625 C-1.90202148 7.0718457 -0.74154297 7.08119141 0.45410156 7.09082031 C4.76324731 7.13071876 9.07167899 7.19647684 13.38037109 7.27001953 C15.24453553 7.29823006 17.1088196 7.31944421 18.97314453 7.33349609 C21.65459441 7.35492484 24.33460586 7.40157298 27.015625 7.453125 C28.26427338 7.45496796 28.26427338 7.45496796 29.53814697 7.45684814 C33.26075875 7.5508957 35.33228381 7.64944288 38.46191406 9.78540039 C40.19503168 12.45991859 40.45242792 13.93519587 40.46875 17.10546875 C40.48035156 18.58176758 40.48035156 18.58176758 40.4921875 20.08789062 C40.47414063 21.13138672 40.45609375 22.17488281 40.4375 23.25 C40.42976563 24.31541016 40.42203125 25.38082031 40.4140625 26.47851562 C40.21388256 35.73683803 38.62553542 44.23038362 35.9375 53.0625 C34.68569721 48.84330897 35.26497579 45.10161435 35.875 40.8125 C35.97490234 40.06742187 36.07480469 39.32234375 36.17773438 38.5546875 C36.42430156 36.72304558 36.68000391 34.89263749 36.9375 33.0625 C37.5975 33.0625 38.2575 33.0625 38.9375 33.0625 C38.85665297 29.79065192 38.74381126 26.52067221 38.625 23.25 C38.59116211 21.8568457 38.59116211 21.8568457 38.55664062 20.43554688 C38.52119141 19.54287109 38.48574219 18.65019531 38.44921875 17.73046875 C38.42303467 16.90828857 38.39685059 16.0861084 38.36987305 15.23901367 C37.8343788 12.54340034 37.05327681 11.77553658 34.9375 10.0625 C31.93213039 9.73106532 29.12304272 9.57374244 26.11328125 9.55078125 C24.82117989 9.52385445 24.82117989 9.52385445 23.50297546 9.49638367 C20.75203342 9.44220702 18.00126559 9.40836177 15.25 9.375 C13.38474134 9.34183337 11.5195057 9.30734433 9.65429688 9.27148438 C5.08215682 9.18647644 0.51006909 9.11970057 -4.0625 9.0625 C-4.16015625 2.91015625 -4.16015625 2.91015625 -4.0625 1.0625 C-3.0625 0.0625 -3.0625 0.0625 0 0 Z " fill="#C9DCA0" transform="translate(317.0625,222.9375)"/>
<path d="M0 0 C0.78181641 -0.020625 1.56363281 -0.04125 2.36914062 -0.0625 C7.76144698 -0.09853881 11.37376786 0.81258994 16.1875 3.25 C16.991875 3.641875 17.79625 4.03375 18.625 4.4375 C19.140625 4.705625 19.65625 4.97375 20.1875 5.25 C20.1875 6.24 20.1875 7.23 20.1875 8.25 C18.2075 8.25 16.2275 8.25 14.1875 8.25 C14.5175 7.26 14.8475 6.27 15.1875 5.25 C9.53102958 4.27025952 4.10662824 4.16188888 -1.625 4.25 C-3.31894729 4.27545375 -5.01296823 4.2965057 -6.70703125 4.3125 C-7.81848511 4.32990234 -7.81848511 4.32990234 -8.95239258 4.34765625 C-10.8125 4.25 -10.8125 4.25 -12.8125 3.25 C-12.8125 2.59 -12.8125 1.93 -12.8125 1.25 C-8.51207953 0.04898709 -4.43970375 0.02885266 0 0 Z " fill="#172114" transform="translate(249.8125,242.75)"/>
<path d="M0 0 C0.33 0 0.66 0 1 0 C1.09796875 0.78117187 1.1959375 1.56234375 1.296875 2.3671875 C2.96486442 15.27972632 4.99179963 28.13670199 7 41 C8.65 41.33 10.3 41.66 12 42 C12 45.3 12 48.6 12 52 C11.67 52 11.34 52 11 52 C11 49.36 11 46.72 11 44 C10.05125 43.731875 9.1025 43.46375 8.125 43.1875 C5 42 5 42 3 39 C2.49755859 36.26367188 2.49755859 36.26367188 2.1484375 32.96875 C1.95507812 31.16277344 1.95507812 31.16277344 1.7578125 29.3203125 C1.63148438 28.05960937 1.50515625 26.79890625 1.375 25.5 C1.2409375 24.27023437 1.106875 23.04046875 0.96875 21.7734375 C0.21067899 14.48667334 -0.18670937 7.32504235 0 0 Z " fill="#BDD28C" transform="translate(192,288)"/>
<path d="M0 0 C0.66 0.33 1.32 0.66 2 1 C1.67 1.66 1.34 2.32 1 3 C1.99 3.66 2.98 4.32 4 5 C-0.72464797 7.79787747 -4.61011567 8.43914202 -10 8.3125 C-10.68578125 8.31572266 -11.3715625 8.31894531 -12.078125 8.32226562 C-16.41143637 8.2767824 -19.97301744 7.57933222 -24 6 C-24 5.67 -24 5.34 -24 5 C-22.17662109 5.01740234 -22.17662109 5.01740234 -20.31640625 5.03515625 C-18.73177236 5.04453278 -17.14713682 5.05363313 -15.5625 5.0625 C-14.35883789 5.07506836 -14.35883789 5.07506836 -13.13085938 5.08789062 C-11.08704779 5.0965143 -9.04316098 5.0522815 -7 5 C-6.67 4.67 -6.34 4.34 -6 4 C-8.64 3.67 -11.28 3.34 -14 3 C-14 2.67 -14 2.34 -14 2 C-13.24074219 1.93941406 -12.48148438 1.87882812 -11.69921875 1.81640625 C-10.70535156 1.73261719 -9.71148437 1.64882813 -8.6875 1.5625 C-7.70136719 1.48128906 -6.71523437 1.40007812 -5.69921875 1.31640625 C-2.90624401 1.08187441 -2.90624401 1.08187441 0 0 Z " fill="#2E3F18" transform="translate(260,306)"/>
<path d="M0 0 C1.67801387 0.27047798 3.34508562 0.61251156 5 1 C6.62278161 1.05529772 8.24776424 1.06311121 9.87109375 1.02734375 C10.77537109 1.01509766 11.67964844 1.00285156 12.61132812 0.99023438 C14.49161489 0.95514955 16.37183201 0.91610308 18.25195312 0.87304688 C23.26376782 0.8124057 27.300041 0.99918273 32 3 C31.34 3.99 30.68 4.98 30 6 C29.39414062 5.855625 28.78828125 5.71125 28.1640625 5.5625 C20.576011 3.88145474 13.31472334 2.91023309 5.75 5.125 C1.63429339 6.08533154 -0.20483719 5.70782327 -4 4 C-2.3125 1.9375 -2.3125 1.9375 0 0 Z " fill="#2F352E" transform="translate(234,245)"/>
<path d="M0 0 C1.921875 1.53125 1.921875 1.53125 3 3 C1.85144531 2.95359375 0.70289063 2.9071875 -0.48046875 2.859375 C-13.32001263 2.4974438 -24.7585337 3.42574914 -35 12 C-34.64633216 9.43590818 -34.24728611 8.23902357 -32.36328125 6.41796875 C-22.76587665 0.65952599 -11.05250192 -1.70038491 0 0 Z " fill="#8AAF40" transform="translate(260,240)"/>
<path d="M0 0 C0 0.66 0 1.32 0 2 C-0.99 2.33 -1.98 2.66 -3 3 C-3.86625 3.8971875 -3.86625 3.8971875 -4.75 4.8125 C-8.28759489 8.25182836 -12.30265822 10.43421941 -17 12 C-17 12.66 -17 13.32 -17 14 C-16.01 14.33 -15.02 14.66 -14 15 C-14.33 15.66 -14.66 16.32 -15 17 C-17.96175123 16.38722388 -19.38058783 15.74627478 -22 14 C-20.77103131 10.31309394 -19.79912598 10.0087602 -16.5 8.125 C-15.6028125 7.609375 -14.705625 7.09375 -13.78125 6.5625 C-12.40453125 5.7890625 -12.40453125 5.7890625 -11 5 C-10.1440625 4.505 -9.288125 4.01 -8.40625 3.5 C-2.28125 0 -2.28125 0 0 0 Z " fill="#B3D5BD" transform="translate(274,131)"/>
<path d="M0 0 C-0.33 0.66 -0.66 1.32 -1 2 C-0.71887936 4.00800456 -0.38932033 6.01014051 0 8 C-2.31 8 -4.62 8 -7 8 C-7 7.34 -7 6.68 -7 6 C-7.99 6 -8.98 6 -10 6 C-10.33 5.01 -10.66 4.02 -11 3 C-12.65 3 -14.3 3 -16 3 C-15.67 2.34 -15.34 1.68 -15 1 C-10.19396481 -0.55033393 -4.99180941 -0.0872355 0 0 Z " fill="#E4E7ED" transform="translate(254,248)"/>
<path d="M0 0 C0.99 0 1.98 0 3 0 C3 6.93 3 13.86 3 21 C2.01 21.33 1.02 21.66 0 22 C0 14.74 0 7.48 0 0 Z " fill="#171626" transform="translate(248,256)"/>
<path d="M0 0 C0 3 0 3 -1.28515625 4.6484375 C-6.98376423 10.18422811 -12.17352068 14.90021286 -20 17 C-19.505 15.515 -19.505 15.515 -19 14 C-18.01 14 -17.02 14 -16 14 C-15.67 13.01 -15.34 12.02 -15 11 C-14.01 10.67 -13.02 10.34 -12 10 C-11.67 9.34 -11.34 8.68 -11 8 C-10.67 7.34 -10.34 6.68 -10 6 C-8.35 6 -6.7 6 -5 6 C-5 4.68 -5 3.36 -5 2 C-3.35 1.34 -1.7 0.68 0 0 Z " fill="#AAC866" transform="translate(342,293)"/>
<path d="M0 0 C19.02475533 -0.6373057 19.02475533 -0.6373057 26 3 C26.99 4.485 26.99 4.485 28 6 C30.05925139 6.72382467 30.05925139 6.72382467 32 7 C32.495 8.98 32.495 8.98 33 11 C29.01720127 11 28.05514651 9.49966533 25 7 C18.80514229 3.0046648 14.05948078 1.91126264 6.75 1.4375 C5.48671875 1.35371094 4.2234375 1.26992187 2.921875 1.18359375 C1.95765625 1.12300781 0.9934375 1.06242188 0 1 C0 0.67 0 0.34 0 0 Z " fill="#7A9B3B" transform="translate(245,242)"/>
<path d="M0 0 C0.99 0.33 1.98 0.66 3 1 C2.54625 1.680625 2.0925 2.36125 1.625 3.0625 C-1.86453571 9.37050687 -2.46028414 15.94108472 -3 23 C-3.33 23 -3.66 23 -4 23 C-4 20.36 -4 17.72 -4 15 C-4.66 15 -5.32 15 -6 15 C-6.33 15.66 -6.66 16.32 -7 17 C-7.22162329 15.37675914 -7.42689803 13.751279 -7.625 12.125 C-7.74101562 11.22007812 -7.85703125 10.31515625 -7.9765625 9.3828125 C-7.98429688 8.59648437 -7.99203125 7.81015625 -8 7 C-7.34 6.34 -6.68 5.68 -6 5 C-5.67 7.31 -5.34 9.62 -5 12 C-4.34 12 -3.68 12 -3 12 C-3.0928125 10.14375 -3.0928125 10.14375 -3.1875 8.25 C-3.20362826 5.21788698 -3.10651023 4.17751704 -1.5 1.5 C-1.005 1.005 -0.51 0.51 0 0 Z " fill="#404246" transform="translate(223,259)"/>
<path d="M0 0 C0.93423645 3.01031744 1.04449911 3.86650268 0 7 C-0.66 7 -1.32 7 -2 7 C-2.144375 7.78375 -2.28875 8.5675 -2.4375 9.375 C-3 12 -3 12 -4 14 C2.6 14 9.2 14 16 14 C16 14.33 16 14.66 16 15 C8.41 15 0.82 15 -7 15 C-6.10223293 10.51116463 -5.28090451 8.42697528 -2.9375 4.6875 C-2.38964844 3.80449219 -1.84179688 2.92148438 -1.27734375 2.01171875 C-0.64505859 1.01591797 -0.64505859 1.01591797 0 0 Z " fill="#B9D9C1" transform="translate(286,186)"/>
<path d="M0 0 C0.33 0 0.66 0 1 0 C1.68944522 12.01604528 2.15130716 23.96267515 2 36 C-0.02045442 35.39816251 -2.02111039 34.72693904 -4 34 C-4.33 33.34 -4.66 32.68 -5 32 C-3.35 32.33 -1.7 32.66 0 33 C0 22.11 0 11.22 0 0 Z " fill="#B0D8BF" transform="translate(353,103)"/>
<path d="M0 0 C1.41862323 2.83724647 0.59326332 4.93076506 -0.1953125 7.890625 C-1.50335235 11.31946732 -3.41140859 13.41140859 -6 16 C-6.66 16 -7.32 16 -8 16 C-8.33 18.64 -8.66 21.28 -9 24 C-9.99 23.67 -10.98 23.34 -12 23 C-10.46688715 17.48431813 -7.81247556 12.97965148 -4.875 8.125 C-4.40707031 7.34125 -3.93914062 6.5575 -3.45703125 5.75 C-2.30981892 3.83017528 -1.1573993 1.91369439 0 0 Z " fill="#ABD0B6" transform="translate(316,133)"/>
<path d="M0 0 C6.95041086 -0.26618595 13.23514355 0.3879491 20 2 C14.21634458 5.85577028 6.61018848 3.96148196 0 3 C0 2.01 0 1.02 0 0 Z " fill="#29293A" transform="translate(236,308)"/>
<path d="M0 0 C0.33 0 0.66 0 1 0 C0.74330594 7.82916885 -1.62224797 13.49723837 -6 20 C-6.66 20.33 -7.32 20.66 -8 21 C-8 19.35 -8 17.7 -8 16 C-7.34 16 -6.68 16 -6 16 C-5.87625 14.700625 -5.7525 13.40125 -5.625 12.0625 C-5.4140625 9.84765625 -5.4140625 9.84765625 -5 8 C-4.34 7.67 -3.68 7.34 -3 7 C-1.94647157 4.69034152 -0.94280904 2.3570226 0 0 Z " fill="#A6C562" transform="translate(351,272)"/>
<path d="M0 0 C3.80700127 6.79821656 4.2751116 13.34531715 4.125 20.9375 C4.11597656 21.81212891 4.10695312 22.68675781 4.09765625 23.58789062 C4.0742957 25.72538064 4.03843247 27.86272786 4 30 C3.67 30 3.34 30 3 30 C2.92652344 29.05640625 2.92652344 29.05640625 2.8515625 28.09375 C2.49309624 23.98992937 2.11448159 20.08166151 0.9375 16.125 C-0.52936076 10.84430127 -0.16296935 5.4323117 0 0 Z " fill="#AECD6B" transform="translate(190,268)"/>
<path d="M0 0 C2.39682383 0.37844587 3.65630081 0.58691044 5.23828125 2.48828125 C5.59277344 3.09027344 5.94726562 3.69226563 6.3125 4.3125 C8.94893357 8.31658349 11.73019619 9.90695891 16 12 C16 12.99 16 13.98 16 15 C14.35 15 12.7 15 11 15 C10.34 13.35 9.68 11.7 9 10 C8.34 10 7.68 10 7 10 C6.67 9.34 6.34 8.68 6 8 C5.01 7.67 4.02 7.34 3 7 C2.3125 4.9375 2.3125 4.9375 2 3 C1.01 3.495 1.01 3.495 0 4 C0 2.68 0 1.36 0 0 Z " fill="#8BAC3E" transform="translate(217,297)"/>
<path d="M0 0 C0.66 0.99 1.32 1.98 2 3 C-0.87164566 5.70272533 -2.30991841 6.94791837 -6.3125 7.25 C-7.199375 7.1675 -8.08625 7.085 -9 7 C-9 7.66 -9 8.32 -9 9 C-13.455 10.485 -13.455 10.485 -18 12 C-18 10.68 -18 9.36 -18 8 C-16.67935547 7.63648438 -16.67935547 7.63648438 -15.33203125 7.265625 C-13.58986328 6.76289063 -13.58986328 6.76289063 -11.8125 6.25 C-10.66394531 5.92515625 -9.51539063 5.6003125 -8.33203125 5.265625 C-4.91526256 3.96781368 -2.70552095 2.42528808 0 0 Z " fill="#97BF41" transform="translate(325,292)"/>
<path d="M0 0 C0.33 0 0.66 0 1 0 C1.33 1.98 1.66 3.96 2 6 C2.99 6 3.98 6 5 6 C3.9171875 6.804375 3.9171875 6.804375 2.8125 7.625 C0.62279981 9.47408016 -0.8458209 10.97500986 -2.5625 13.1875 C-5.65171504 16.75197889 -5.65171504 16.75197889 -9 17 C-8.505 15.515 -8.505 15.515 -8 14 C-7.34 14 -6.68 14 -6 14 C-5.62875 13.0409375 -5.62875 13.0409375 -5.25 12.0625 C-3.59188428 8.00011649 -1.7964416 4.00275094 0 0 Z " fill="#A7CB5B" transform="translate(338,271)"/>
<path d="M0 0 C0.33 0 0.66 0 1 0 C1.33 8.58 1.66 17.16 2 26 C-1.73069283 25.25386143 -4.57404607 24.46826597 -8 23 C-8 22.34 -8 21.68 -8 21 C-5.69 21.33 -3.38 21.66 -1 22 C-0.67 14.74 -0.34 7.48 0 0 Z " fill="#C3DECC" transform="translate(232,156)"/>
<path d="M0 0 C1.32 0.33 2.64 0.66 4 1 C4 2.32 4 3.64 4 5 C3.34 5 2.68 5 2 5 C2.33 6.65 2.66 8.3 3 10 C3.33 10 3.66 10 4 10 C4 12.31 4 14.62 4 17 C4.66 17 5.32 17 6 17 C5.67 18.98 5.34 20.96 5 23 C4.71125 22.38125 4.4225 21.7625 4.125 21.125 C3.06279958 18.86674235 3.06279958 18.86674235 1 17 C0.69324768 14.10032243 0.48826629 11.28216822 0.375 8.375 C0.33632813 7.57320313 0.29765625 6.77140625 0.2578125 5.9453125 C0.16346069 3.96392444 0.08063785 1.98199355 0 0 Z " fill="#2F3238" transform="translate(279,269)"/>
<path d="M0 0 C1.19882813 0.00483398 1.19882813 0.00483398 2.421875 0.00976562 C3.246875 0.01814453 4.071875 0.02652344 4.921875 0.03515625 C5.76234375 0.03966797 6.6028125 0.04417969 7.46875 0.04882812 C9.53648901 0.06057664 11.60419124 0.07851103 13.671875 0.09765625 C10.20282112 3.56671013 6.4160402 3.25550522 1.671875 3.28515625 C0.640625 3.29933594 -0.390625 3.31351563 -1.453125 3.328125 C-4.29357703 3.10042572 -5.91920448 2.56269686 -8.328125 1.09765625 C-5.47652109 0.28331482 -2.96186369 -0.02115617 0 0 Z " fill="#243316" transform="translate(245.328125,242.90234375)"/>
<path d="M0 0 C0.66 0 1.32 0 2 0 C2.33 0.99 2.66 1.98 3 3 C5.01508358 3.73323796 5.01508358 3.73323796 7 4 C7.103125 4.639375 7.20625 5.27875 7.3125 5.9375 C7.6528125 6.9584375 7.6528125 6.9584375 8 8 C8.99 8.33 9.98 8.66 11 9 C10.67 9.99 10.34 10.98 10 12 C9.67 11.01 9.34 10.02 9 9 C7.67288808 8.64270064 6.33737094 8.31674575 5 8 C2.60597431 6.75675061 0.31887642 5.3824071 -2 4 C-1.34 2.68 -0.68 1.36 0 0 Z " fill="#A8CDB4" transform="translate(313,111)"/>
<path d="M0 0 C0 0.99 0 1.98 0 3 C-4.03619895 4.61447958 -6.9665315 3.19020382 -11 2 C-13.99175376 1.5617176 -16.98787653 1.25954805 -20 1 C-20 0.67 -20 0.34 -20 0 C-6.3667426 -1.33257403 -6.3667426 -1.33257403 0 0 Z " fill="#3B3C49" transform="translate(265,247)"/>
<path d="M0 0 C1.7492214 -0.08142927 3.49954542 -0.13938541 5.25 -0.1875 C6.22453125 -0.22230469 7.1990625 -0.25710938 8.203125 -0.29296875 C11 0 11 0 15 3 C8.4 3 1.8 3 -5 3 C-5 2.67 -5 2.34 -5 2 C-3.35 1.67 -1.7 1.34 0 1 C0 0.67 0 0.34 0 0 Z " fill="#444452" transform="translate(253,278)"/>
<path d="M0 0 C0 0.33 0 0.66 0 1 C-7.84402334 1.72526532 -15.19744856 2.21074074 -23 1 C-23 0.67 -23 0.34 -23 0 C-15.56006938 -1.72005735 -7.45392316 -1.65642737 0 0 Z " fill="#94C130" transform="translate(260,316)"/>
<path d="M0 0 C0.66 0.33 1.32 0.66 2 1 C1.60167969 1.65226563 1.20335937 2.30453125 0.79296875 2.9765625 C-1.99490488 7.57553652 -4.69721368 12.13856221 -7 17 C-7.66 15.68 -8.32 14.36 -9 13 C-8.34 13 -7.68 13 -7 13 C-5.74335022 10.09399739 -5 8.20395416 -5 5 C-4.34 5 -3.68 5 -3 5 C-2.690625 4.360625 -2.38125 3.72125 -2.0625 3.0625 C-1 1 -1 1 0 0 Z " fill="#A3CCB0" transform="translate(334,142)"/>
<path d="M0 0 C0.33 0 0.66 0 1 0 C1 2.97 1 5.94 1 9 C0.34 9 -0.32 9 -1 9 C-1 16.26 -1 23.52 -1 31 C-1.33 31 -1.66 31 -2 31 C-2.05831395 26.95839444 -2.09370212 22.91689795 -2.125 18.875 C-2.14175781 17.73289062 -2.15851563 16.59078125 -2.17578125 15.4140625 C-2.18222656 14.30546875 -2.18867188 13.196875 -2.1953125 12.0546875 C-2.20578613 11.03874512 -2.21625977 10.02280273 -2.22705078 8.97607422 C-1.97841818 5.71711571 -1.14878364 3.04884793 0 0 Z " fill="#95BC49" transform="translate(308,269)"/>
<path d="M0 0 C0.94488281 0.23847656 1.88976562 0.47695312 2.86328125 0.72265625 C6.12886759 1.00448784 9.40172141 1.13622437 12.67578125 1.28515625 C13.55943359 1.32833984 14.44308594 1.37152344 15.35351562 1.41601562 C17.52327748 1.52157161 19.69326035 1.62256696 21.86328125 1.72265625 C22.19328125 2.38265625 22.52328125 3.04265625 22.86328125 3.72265625 C13.29328125 3.39265625 3.72328125 3.06265625 -6.13671875 2.72265625 C-2.13671875 -0.27734375 -2.13671875 -0.27734375 0 0 Z " fill="#7EAC25" transform="translate(320.13671875,240.27734375)"/>
<path d="M0 0 C1 2 1 2 0.375 5.25 C-1.20797396 9.56720171 -2.81542161 11.73580715 -6 15 C-6.66 15 -7.32 15 -8 15 C-6.55049545 11.2089881 -4.84827434 7.6125362 -3 4 C-2.34 4 -1.68 4 -1 4 C-0.67 2.68 -0.34 1.36 0 0 Z " fill="#AFD2B8" transform="translate(303,156)"/>
<path d="M0 0 C0.33 0 0.66 0 1 0 C1.33 7.59 1.66 15.18 2 23 C1.34 23.33 0.68 23.66 0 24 C-1.32 23.01 -2.64 22.02 -4 21 C-2.68 21 -1.36 21 0 21 C0 14.07 0 7.14 0 0 Z " fill="#CDE6D4" transform="translate(288,142)"/>
<path d="M0 0 C-0.55700072 3.23060419 -1.29215122 5.0658223 -4 7 C-6.6875 7.1875 -6.6875 7.1875 -9 7 C-9 6.01 -9 5.02 -9 4 C-5.7309841 0.8217901 -4.67834007 0 0 0 Z " fill="#252A32" transform="translate(270,303)"/>
<path d="M0 0 C0.66 0 1.32 0 2 0 C0.08162729 3.99353549 -2.2349458 7.70002483 -4.5625 11.46484375 C-5.95596837 13.92234639 -7.01600895 16.35552405 -8 19 C-9.15957207 15.52128379 -8.77456651 14.65780355 -7.5625 11.3125 C-7.27503906 10.50425781 -6.98757812 9.69601562 -6.69140625 8.86328125 C-6.46324219 8.24839844 -6.23507813 7.63351562 -6 7 C-5.34 7 -4.68 7 -4 7 C-3.71125 6.401875 -3.4225 5.80375 -3.125 5.1875 C-2 3 -2 3 0 0 Z " fill="#8CAE48" transform="translate(222,252)"/>
<path d="M0 0 C0.33 0 0.66 0 1 0 C1 2.31 1 4.62 1 7 C0.01 7.495 0.01 7.495 -1 8 C3.29 8.33 7.58 8.66 12 9 C12 9.33 12 9.66 12 10 C7.05 10 2.1 10 -3 10 C-4 7 -4 7 -3.22265625 5.17578125 C-2.1484375 3.45052083 -1.07421875 1.72526042 0 0 Z " fill="#BCD6C2" transform="translate(200,191)"/>
<path d="M0 0 C2.87687481 0.22129806 4.53951144 0.63478494 6.8125 2.4375 C8 4 8 4 8 6 C5.69 5.34 3.38 4.68 1 4 C0.34 5.65 -0.32 7.3 -1 9 C-1.33 9 -1.66 9 -2 9 C-2.125 5.625 -2.125 5.625 -2 2 C-1.34 1.34 -0.68 0.68 0 0 Z " fill="#A5CFB3" transform="translate(340,129)"/>
<path d="M0 0 C0.66 0.33 1.32 0.66 2 1 C1.4375 2.9375 1.4375 2.9375 0 5 C-3.625 5.75 -3.625 5.75 -7 6 C-6.67 5.34 -6.34 4.68 -6 4 C-8.64 3.67 -11.28 3.34 -14 3 C-14 2.67 -14 2.34 -14 2 C-13.24074219 1.93941406 -12.48148438 1.87882812 -11.69921875 1.81640625 C-10.70535156 1.73261719 -9.71148437 1.64882813 -8.6875 1.5625 C-7.70136719 1.48128906 -6.71523437 1.40007812 -5.69921875 1.31640625 C-2.90624401 1.08187441 -2.90624401 1.08187441 0 0 Z " fill="#41414E" transform="translate(260,306)"/>
<path d="M0 0 C2.6855594 2.6855594 3.06049974 5.37621328 4 9 C3.34 9 2.68 9 2 9 C1.67 9.99 1.34 10.98 1 12 C-0.32 10.35 -1.64 8.7 -3 7 C-2.34 6.34 -1.68 5.68 -1 5 C-0.35232207 2.42938689 -0.35232207 2.42938689 0 0 Z " fill="#393D3C" transform="translate(220,286)"/>
<path d="M0 0 C0 0.99 0 1.98 0 3 C-0.66 3 -1.32 3 -2 3 C-2 3.66 -2 4.32 -2 5 C-1.01 5.33 -0.02 5.66 1 6 C0.67 6.66 0.34 7.32 0 8 C-2.96175123 7.38722388 -4.38058783 6.74627478 -7 5 C-6.67 4.01 -6.34 3.02 -6 2 C-2.9375 0.8125 -2.9375 0.8125 0 0 Z " fill="#A5C9AF" transform="translate(259,140)"/>
<path d="M0 0 C0.66 0 1.32 0 2 0 C1.41892368 3.7602985 0.34800504 6.53035032 -1.5625 9.8125 C-2.01753906 10.60269531 -2.47257812 11.39289063 -2.94140625 12.20703125 C-3.29074219 12.79871094 -3.64007813 13.39039063 -4 14 C-5.171875 12.328125 -5.171875 12.328125 -6 10 C-4.953125 7.421875 -4.953125 7.421875 -3.25 4.75 C-2.69828125 3.85796875 -2.1465625 2.9659375 -1.578125 2.046875 C-1.05734375 1.37140625 -0.5365625 0.6959375 0 0 Z " fill="#A1CAAD" transform="translate(309,184)"/>
<path d="M0 0 C0 2.31 0 4.62 0 7 C-2.97 6.505 -2.97 6.505 -6 6 C-6 5.34 -6 4.68 -6 4 C-6.66 3.67 -7.32 3.34 -8 3 C-3.375 0 -3.375 0 0 0 Z " fill="#A3C9AF" transform="translate(232,150)"/>
<path d="M0 0 C0.33 0.99 0.66 1.98 1 3 C0.030625 3.433125 -0.93875 3.86625 -1.9375 4.3125 C-5.27731765 5.7014861 -5.27731765 5.7014861 -6 9 C-8.97 8.67 -11.94 8.34 -15 8 C-15 7.67 -15 7.34 -15 7 C-13.72125 6.9175 -12.4425 6.835 -11.125 6.75 C-8.94666582 6.54130069 -8.94666582 6.54130069 -7 6 C-5.4100567 4.07935207 -5.4100567 4.07935207 -5 2 C-3.35 2 -1.7 2 0 2 C0 1.34 0 0.68 0 0 Z " fill="#85B034" transform="translate(269,308)"/>
<path d="M0 0 C0.33 0.66 0.66 1.32 1 2 C1.66 2 2.32 2 3 2 C3 2.66 3 3.32 3 4 C3.66 4.33 4.32 4.66 5 5 C4.195625 5.45375 3.39125 5.9075 2.5625 6.375 C-0.08856572 7.74725665 -0.08856572 7.74725665 -1 10 C-1.99 9.67 -2.98 9.34 -4 9 C-4 8.34 -4 7.68 -4 7 C-3.01 7 -2.02 7 -1 7 C-0.67 5.68 -0.34 4.36 0 3 C-0.66 2.67 -1.32 2.34 -2 2 C-1.34 1.34 -0.68 0.68 0 0 Z " fill="#3C4833" transform="translate(270,300)"/>
<path d="M0 0 C0.99 0.33 1.98 0.66 3 1 C0.69 4.96 -1.62 8.92 -4 13 C-5.4783226 10.04335481 -5.06032783 7.25770263 -5 4 C-4.01 3.67 -3.02 3.34 -2 3 C-1.34 2.01 -0.68 1.02 0 0 Z " fill="#A7CFB6" transform="translate(272,166)"/>
<path d="M0 0 C0 2.64 0 5.28 0 8 C-0.33 6.68 -0.66 5.36 -1 4 C-3.31 4.66 -5.62 5.32 -8 6 C-8.66 5.34 -9.32 4.68 -10 4 C-3.375 0 -3.375 0 0 0 Z " fill="#AED1B9" transform="translate(353,90)"/>
<path d="M0 0 C0.99 0 1.98 0 3 0 C3.56561146 5.65611463 1.71391278 9.22642128 -1 14 C-2.13732426 10.59598052 -1.83989957 8.22543336 -1.0625 4.75 C-0.86785156 3.85796875 -0.67320312 2.9659375 -0.47265625 2.046875 C-0.31667969 1.37140625 -0.16070312 0.6959375 0 0 Z " fill="#BED783" transform="translate(341,256)"/>
<path d="M0 0 C0.66 0.33 1.32 0.66 2 1 C1.67 1.66 1.34 2.32 1 3 C1.99 3 2.98 3 4 3 C3.67 4.98 3.34 6.96 3 9 C2.34 9 1.68 9 1 9 C0.67 7.68 0.34 6.36 0 5 C-0.33 5.66 -0.66 6.32 -1 7 C-1.66 6.67 -2.32 6.34 -3 6 C-2.625 3.5625 -2.625 3.5625 -2 1 C-1.34 0.67 -0.68 0.34 0 0 Z " fill="#F5F5FA" transform="translate(243,251)"/>
<path d="M0 0 C2.64 0.99 5.28 1.98 8 3 C8 3.33 8 3.66 8 4 C6.02 4.33 4.04 4.66 2 5 C2 5.66 2 6.32 2 7 C-0.91517292 5.92598892 -2.77810176 5.22189824 -5 3 C-4.360625 2.87625 -3.72125 2.7525 -3.0625 2.625 C-2.0415625 2.315625 -2.0415625 2.315625 -1 2 C-0.67 1.34 -0.34 0.68 0 0 Z " fill="#3E433C" transform="translate(234,304)"/>
<path d="M0 0 C1.65 0.33 3.3 0.66 5 1 C1.71644638 4.67758005 -1.62778237 6.81389118 -6 9 C-6.66 8.67 -7.32 8.34 -8 8 C-7.67 7.34 -7.34 6.68 -7 6 C-6.01 6 -5.02 6 -4 6 C-3.67 5.01 -3.34 4.02 -3 3 C-2.01 2.67 -1.02 2.34 0 2 C0 1.34 0 0.68 0 0 Z " fill="#B2D076" transform="translate(330,301)"/>
<path d="M0 0 C0.66 0.33 1.32 0.66 2 1 C-0.5162178 3.60608273 -3.05134359 5.89381685 -6 8 C-7.32 7.34 -8.64 6.68 -10 6 C-8.3811004 4.96951963 -6.75467511 3.95085322 -5.125 2.9375 C-4.22007812 2.36902344 -3.31515625 1.80054687 -2.3828125 1.21484375 C-1.20332031 0.61349609 -1.20332031 0.61349609 0 0 Z " fill="#A9CEB5" transform="translate(329,102)"/>
<path d="M0 0 C0.66 0 1.32 0 2 0 C2.33 1.65 2.66 3.3 3 5 C3.99 5 4.98 5 6 5 C5.67 5.99 5.34 6.98 5 8 C2.13275314 7.42655063 1.1385485 7.1385485 -1 5 C-0.625 2.375 -0.625 2.375 0 0 Z " fill="#1E221A" transform="translate(222,295)"/>
<path d="M0 0 C1.32 0 2.64 0 4 0 C3.1875 3.4375 3.1875 3.4375 2 7 C1.01 7.33 0.02 7.66 -1 8 C-1.04241723 5.66705225 -1.04092937 3.33297433 -1 1 C-0.67 0.67 -0.34 0.34 0 0 Z " fill="#80B416" transform="translate(315,234)"/>
<path d="M0 0 C0.433125 0.495 0.86625 0.99 1.3125 1.5 C2.99740483 3.33218192 2.99740483 3.33218192 6 3 C6.33 3.66 6.66 4.32 7 5 C9.52733235 5.65555119 9.52733235 5.65555119 12 6 C12 6.33 12 6.66 12 7 C10.18706911 6.85962479 8.3746557 6.71255111 6.5625 6.5625 C5.04849609 6.44068359 5.04849609 6.44068359 3.50390625 6.31640625 C1 6 1 6 0 5 C-0.04063832 3.33382885 -0.042721 1.66611905 0 0 Z " fill="#7DA32F" transform="translate(198,324)"/>
<path d="M0 0 C0 3 0 3 -2.3125 5.625 C-5 8 -5 8 -8 9 C-6.07485943 4.70545566 -3.90477983 2.60318655 0 0 Z " fill="#88B42F" transform="translate(334,285)"/>
<path d="M0 0 C1.32 0.66 2.64 1.32 4 2 C3.67 2.99 3.34 3.98 3 5 C-3 5 -3 5 -4.6875 3.5 C-5.120625 3.005 -5.55375 2.51 -6 2 C-4.02 2 -2.04 2 0 2 C0 1.34 0 0.68 0 0 Z " fill="#3B423B" transform="translate(270,249)"/>
<path d="M0 0 C0.33 0.66 0.66 1.32 1 2 C0.1875 4.3125 0.1875 4.3125 -1 7 C-1.37125 7.928125 -1.7425 8.85625 -2.125 9.8125 C-2.41375 10.534375 -2.7025 11.25625 -3 12 C-3.99 12 -4.98 12 -6 12 C-4.68139111 7.38486888 -2.78644563 3.90102388 0 0 Z " fill="#A9D2B7" transform="translate(249,173)"/>
<path d="M0 0 C1.32 0.33 2.64 0.66 4 1 C4 1.66 4 2.32 4 3 C5.32 2.67 6.64 2.34 8 2 C8 3.98 8 5.96 8 8 C7.67 7.34 7.34 6.68 7 6 C5.35448038 5.28272222 3.68577711 4.61674772 2 4 C1.34 3.67 0.68 3.34 0 3 C0 2.01 0 1.02 0 0 Z " fill="#A6CDB4" transform="translate(205,164)"/>
<path d="M0 0 C0.99 0 1.98 0 3 0 C1.55049545 3.7910119 -0.15172566 7.3874638 -2 11 C-2.66 11 -3.32 11 -4 11 C-3.67 9.02 -3.34 7.04 -3 5 C-2.01 4.67 -1.02 4.34 0 4 C0 2.68 0 1.36 0 0 Z " fill="#A5CCB3" transform="translate(323,159)"/>
<path d="M0 0 C0.33 0 0.66 0 1 0 C1 5.28 1 10.56 1 16 C-0.98 15.34 -2.96 14.68 -5 14 C-5.33 13.34 -5.66 12.68 -6 12 C-3.03 12.495 -3.03 12.495 0 13 C0 8.71 0 4.42 0 0 Z " fill="#C9E5D5" transform="translate(354,123)"/>
<path d="M0 0 C0 0.66 0 1.32 0 2 C-4.455 3.485 -4.455 3.485 -9 5 C-9 3.68 -9 2.36 -9 1 C-5.8035914 -0.06546953 -3.34252724 -0.07427838 0 0 Z " fill="#89B238" transform="translate(316,299)"/>
<path d="M0 0 C0.33 0 0.66 0 1 0 C1 4.95 1 9.9 1 15 C0.67 15 0.34 15 0 15 C-0.33 13.02 -0.66 11.04 -1 9 C-1.33 9 -1.66 9 -2 9 C-2 7.02 -2 5.04 -2 3 C-1.34 3 -0.68 3 0 3 C0 2.01 0 1.02 0 0 Z " fill="#1C1B2E" transform="translate(283,271)"/>
<path d="M0 0 C0.33 0 0.66 0 1 0 C1.16682272 4.92127034 1.24828052 8.50343896 -1 13 C-1.33 13 -1.66 13 -2 13 C-2.16682272 8.07872966 -2.24828052 4.49656104 0 0 Z " fill="#95B743" transform="translate(341,265)"/>
<path d="M0 0 C2.97 0.495 2.97 0.495 6 1 C6.99 3.97 7.98 6.94 9 10 C8.01 10.495 8.01 10.495 7 11 C6.38125 9.6696875 6.38125 9.6696875 5.75 8.3125 C4.09872712 5.18687634 2.28668741 2.68094386 0 0 Z " fill="#383744" transform="translate(270,255)"/>
<path d="M0 0 C-0.9075 0.598125 -1.815 1.19625 -2.75 1.8125 C-5.22901481 3.48106766 -7.63317911 5.17936855 -10 7 C-10.66 6.34 -11.32 5.68 -12 5 C-4.5 -1.5 -4.5 -1.5 0 0 Z " fill="#2F2F3D" transform="translate(236,252)"/>
<path d="M0 0 C2.475 0.495 2.475 0.495 5 1 C4.01 1.33 3.02 1.66 2 2 C2.99 2.66 3.98 3.32 5 4 C3.625 6 3.625 6 2 8 C1.34 8 0.68 8 0 8 C0 5.36 0 2.72 0 0 Z " fill="#759247" transform="translate(187,224)"/>
<path d="M0 0 C4.75 0.875 4.75 0.875 7 2 C7 2.99 7 3.98 7 5 C5.35 5 3.7 5 2 5 C1.34 3.35 0.68 1.7 0 0 Z " fill="#9ABE44" transform="translate(226,307)"/>
<path d="M0 0 C0.66 0.33 1.32 0.66 2 1 C2.36630156 4.93774177 2.30233203 6.56539771 0 9.875 C-0.66 10.57625 -1.32 11.2775 -2 12 C-2 10.35 -2 8.7 -2 7 C-1.34 7 -0.68 7 0 7 C0 4.69 0 2.38 0 0 Z " fill="#27361A" transform="translate(281,287)"/>
<path d="M0 0 C0.33 0 0.66 0 1 0 C1 2.64 1 5.28 1 8 C0.01 8 -0.98 8 -2 8 C-2 8.99 -2 9.98 -2 11 C-2.66 11 -3.32 11 -4 11 C-3.52269162 9.5410574 -3.04308958 8.08286504 -2.5625 6.625 C-2.29566406 5.81289063 -2.02882813 5.00078125 -1.75390625 4.1640625 C-1 2 -1 2 0 0 Z " fill="#C8DD9B" transform="translate(338,271)"/>
<path d="M0 0 C0.66 0.99 1.32 1.98 2 3 C1.01 3.33 0.02 3.66 -1 4 C-1.0825 4.763125 -1.165 5.52625 -1.25 6.3125 C-2.14615794 9.52373261 -3.21611025 10.29374499 -6 12 C-4.43358249 7.69235185 -2.31663844 3.93828536 0 0 Z " fill="#B9D8C1" transform="translate(242,185)"/>
<path d="M0 0 C0.66 0.33 1.32 0.66 2 1 C0.8125 3.4375 0.8125 3.4375 -1 6 C-3.6875 6.8125 -3.6875 6.8125 -6 7 C-6 6.01 -6 5.02 -6 4 C-3 1.8125 -3 1.8125 0 0 Z " fill="#95B946" transform="translate(276,303)"/>
<path d="M0 0 C0 3.20395416 -0.74335022 5.09399739 -2 8 C-2.99 8 -3.98 8 -5 8 C-4.67 6.68 -4.34 5.36 -4 4 C-3.34 4 -2.68 4 -2 4 C-2 3.01 -2 2.02 -2 1 C-1.34 0.67 -0.68 0.34 0 0 Z " fill="#DCDCE2" transform="translate(278,287)"/>
<path d="M0 0 C1.32 0.33 2.64 0.66 4 1 C4 2.32 4 3.64 4 5 C3.34 5 2.68 5 2 5 C2 7.64 2 10.28 2 13 C1.67 13 1.34 13 1 13 C0.67 8.71 0.34 4.42 0 0 Z " fill="#3B384C" transform="translate(279,269)"/>
<path d="M0 0 C0.99 0.33 1.98 0.66 3 1 C3 5.62 3 10.24 3 15 C2.67 15 2.34 15 2 15 C2 11.04 2 7.08 2 3 C0.68 2.34 -0.64 1.68 -2 1 C-1.34 0.67 -0.68 0.34 0 0 Z " fill="#C4E4CF" transform="translate(285,124)"/>
<path d="M0 0 C0.66 0 1.32 0 2 0 C2.33 3.63 2.66 7.26 3 11 C2.01 11 1.02 11 0 11 C0 7.37 0 3.74 0 0 Z " fill="#26233B" transform="translate(217,274)"/>
<path d="M0 0 C2.97 0.495 2.97 0.495 6 1 C6 1.99 6 2.98 6 4 C4.68 4 3.36 4 2 4 C1.67 5.65 1.34 7.3 1 9 C0.67 9 0.34 9 0 9 C0 6.03 0 3.06 0 0 Z " fill="#777580" transform="translate(178,211)"/>
<path d="M0 0 C0.66 0.33 1.32 0.66 2 1 C-1.07999946 4.67230705 -3.2482602 5.56802365 -8 6 C-5.63404067 3.38499232 -3.13950774 1.61000397 0 0 Z " fill="#B6D8BE" transform="translate(222,154)"/>
<path d="M0 0 C4.62 0 9.24 0 14 0 C14 0.99 14 1.98 14 3 C9.38 2.34 4.76 1.68 0 1 C0 0.67 0 0.34 0 0 Z " fill="#171623" transform="translate(254,277)"/>
<path d="M0 0 C1.2065625 0.0309375 1.2065625 0.0309375 2.4375 0.0625 C0.79580472 2.08304804 -0.87161778 4.08293058 -2.5625 6.0625 C-2.8925 6.0625 -3.2225 6.0625 -3.5625 6.0625 C-3.605221 4.39638095 -3.60313832 2.72867115 -3.5625 1.0625 C-2.5625 0.0625 -2.5625 0.0625 0 0 Z " fill="#7FAF26" transform="translate(192.5625,231.9375)"/>
<path d="M0 0 C0.66 1.32 1.32 2.64 2 4 C1.01 4.495 1.01 4.495 0 5 C-0.33 5.99 -0.66 6.98 -1 8 C-1.99 8.33 -2.98 8.66 -4 9 C-2.80100302 5.9168649 -1.52299523 2.93720508 0 0 Z " fill="#ADD1B8" transform="translate(292,175)"/>
<path d="M0 0 C-0.33 0.99 -0.66 1.98 -1 3 C-3.97 2.505 -3.97 2.505 -7 2 C-7 1.34 -7 0.68 -7 0 C-4.3333581 -1.33332095 -2.83319697 -0.67102033 0 0 Z " fill="#8EC39F" transform="translate(322,110)"/>
<path d="M0 0 C0.66 0.33 1.32 0.66 2 1 C1.34 2.32 0.68 3.64 0 5 C-2.31 5 -4.62 5 -7 5 C-4.702779 3.25728062 -2.40133271 1.60088848 0 0 Z " fill="#AFD2BB" transform="translate(341,95)"/>
<path d="M0 0 C2.31 0 4.62 0 7 0 C7 0.66 7 1.32 7 2 C4.69 2.33 2.38 2.66 0 3 C0 2.01 0 1.02 0 0 Z " fill="#1A211E" transform="translate(236,308)"/>
<path d="M0 0 C2.31 1.98 4.62 3.96 7 6 C6.01 6.66 5.02 7.32 4 8 C4 7.01 4 6.02 4 5 C3.01 5 2.02 5 1 5 C0.67 3.35 0.34 1.7 0 0 Z " fill="#43434D" transform="translate(224,295)"/>
<path d="M0 0 C0.33 0 0.66 0 1 0 C0.88590407 1.45922693 0.75834456 2.91740598 0.625 4.375 C0.55539062 5.18710937 0.48578125 5.99921875 0.4140625 6.8359375 C0 9 0 9 -2 11 C-2.28571429 3.57142857 -2.28571429 3.57142857 0 0 Z " fill="#ABC86F" transform="translate(351,272)"/>
<path d="M0 0 C0.66 0.33 1.32 0.66 2 1 C1.37240135 3.92879371 0.41377341 6.36095629 -1 9 C-2.0326802 6.21176345 -2.04509293 5.1322726 -1.0625 2.25 C-0.711875 1.5075 -0.36125 0.765 0 0 Z " fill="#83B027" transform="translate(349,271)"/>
<path d="M0 0 C2.475 0.99 2.475 0.99 5 2 C5 1.34 5 0.68 5 0 C5.99 0.33 6.98 0.66 8 1 C8 1.99 8 2.98 8 4 C5.125 3.6875 5.125 3.6875 2 3 C1.34 2.01 0.68 1.02 0 0 Z " fill="#191E1E" transform="translate(268,252)"/>
<path d="M0 0 C1.65 0 3.3 0 5 0 C5 1.32 5 2.64 5 4 C2.03 3.505 2.03 3.505 -1 3 C-0.67 2.01 -0.34 1.02 0 0 Z " fill="#88C19B" transform="translate(299,196)"/>
<path d="M0 0 C6.0546875 -0.1953125 6.0546875 -0.1953125 8 0 C8.66 0.66 9.32 1.32 10 2 C7.69 2.33 5.38 2.66 3 3 C3 2.34 3 1.68 3 1 C2.01 0.67 1.02 0.34 0 0 Z " fill="#343535" transform="translate(307,221)"/>
<path d="M0 0 C0.66 0.33 1.32 0.66 2 1 C2 3.31 2 5.62 2 8 C1.01 7.67 0.02 7.34 -1 7 C-0.67 4.69 -0.34 2.38 0 0 Z " fill="#22202D" transform="translate(319,213)"/>
<path d="M0 0 C0.99 0 1.98 0 3 0 C1.92598892 2.91517292 1.22189824 4.77810176 -1 7 C-1.625 5.1875 -1.625 5.1875 -2 3 C-1.34 2.01 -0.68 1.02 0 0 Z " fill="#A3CBB0" transform="translate(264,179)"/>
<path d="M0 0 C0.33 0.66 0.66 1.32 1 2 C-0.28062485 3.7074998 -1.61767557 5.37373596 -3 7 C-3.66 7 -4.32 7 -5 7 C-3.75023244 3.34683329 -3.32901247 2.21934164 0 0 Z " fill="#A1CAB0" transform="translate(300,164)"/>
<path d="M0 0 C0 0.66 0 1.32 0 2 C-2.31856917 3.54571278 -4.50638429 4.79618552 -7 6 C-7.66 5.34 -8.32 4.68 -9 4 C-2.25 0 -2.25 0 0 0 Z " fill="#B7D6C2" transform="translate(283,126)"/>
<path d="M0 0 C1.98 0 3.96 0 6 0 C6.33 0.66 6.66 1.32 7 2 C4.69 2.66 2.38 3.32 0 4 C0 2.68 0 1.36 0 0 Z " fill="#151A1C" transform="translate(229,249)"/>
</svg>
